<?xml version="1.0" encoding="UTF-8" standalone="no"?>
<!-- Created with Inkscape (http://www.inkscape.org/) -->

<svg
   xmlns:osb="http://www.openswatchbook.org/uri/2009/osb"
   xmlns:dc="http://purl.org/dc/elements/1.1/"
   xmlns:cc="http://creativecommons.org/ns#"
   xmlns:rdf="http://www.w3.org/1999/02/22-rdf-syntax-ns#"
   xmlns:svg="http://www.w3.org/2000/svg"
   xmlns="http://www.w3.org/2000/svg"
   xmlns:sodipodi="http://sodipodi.sourceforge.net/DTD/sodipodi-0.dtd"
   xmlns:inkscape="http://www.inkscape.org/namespaces/inkscape"
   width="125"
   height="175"
   viewBox="0 0 33.072916 46.302085"
   version="1.1"
   id="svg8"
   inkscape:version="0.92.5 (2060ec1f9f, 2020-04-08)"
   sodipodi:docname="green-3-oval-striped.svg">
  <defs
     id="defs2">
    <linearGradient
       id="linearGradient841"
       osb:paint="solid">
      <stop
         style="stop-color:#a100ff;stop-opacity:1;"
         offset="0"
         id="stop839" />
    </linearGradient>
  </defs>
  <sodipodi:namedview
     id="base"
     pagecolor="#ffffff"
     bordercolor="#666666"
     borderopacity="1.0"
     inkscape:pageopacity="0.0"
     inkscape:pageshadow="2"
     inkscape:zoom="2.8"
     inkscape:cx="-47.641336"
     inkscape:cy="78.633122"
     inkscape:document-units="mm"
     inkscape:current-layer="layer1"
     showgrid="false"
     units="px"
     inkscape:snap-midpoints="true"
     inkscape:window-width="1366"
     inkscape:window-height="705"
     inkscape:window-x="-8"
     inkscape:window-y="-8"
     inkscape:window-maximized="1" />
  <metadata
     id="metadata5">
    <rdf:RDF>
      <cc:Work
         rdf:about="">
        <dc:format>image/svg+xml</dc:format>
        <dc:type
           rdf:resource="http://purl.org/dc/dcmitype/StillImage" />
        <dc:title />
      </cc:Work>
    </rdf:RDF>
  </metadata>
  <g
     inkscape:label="Layer 1"
     inkscape:groupmode="layer"
     id="layer1"
     transform="translate(0,-250.6979)">
    <ellipse
       style="fill:none;stroke:#00be00;stroke-width:0.5;fill-opacity:1;stroke-opacity:1;stroke-miterlimit:4;stroke-dasharray:none"
       id="path10"
       cx="16.570711"
       cy="260.25043"
       rx="8.2856903"
       ry="4.1430125" />
    <ellipse
       style="fill:none;stroke:#00be00;stroke-width:0.5;stroke-opacity:1;fill-opacity:1;stroke-miterlimit:4;stroke-dasharray:none"
       id="path10-4"
       cx="16.83798"
       cy="274.28207"
       rx="8.2856903"
       ry="4.1430125" />
    <ellipse
       style="fill:none;stroke:#00be00;stroke-width:0.5;fill-opacity:1;stroke-opacity:1;stroke-miterlimit:4;stroke-dasharray:none"
       id="path10-4-0"
       cx="16.971615"
       cy="287.91281"
       rx="8.2856903"
       ry="4.1430125" />
    <path
       style="fill:#00be00;fill-opacity:1;stroke:#00be00;stroke-width:0.5;stroke-opacity:1;stroke-miterlimit:4;stroke-dasharray:none"
       id="path823"
       d="m 11.964291,271.50813 c -0.02027,0.33126 0.04177,0.66031 0.0915,0.98641 0.05167,0.26871 0.0596,0.5429 0.09496,0.81341 0.04389,0.21212 0.06527,0.42738 0.07964,0.64322 0.03225,0.19652 0.0576,0.39485 0.0953,0.59043 0.05387,0.19824 0.07928,0.4005 0.09289,0.60488 0.0118,0.21017 0.01327,0.42073 0.01421,0.63118 4.23e-4,0.19119 5.2e-5,0.38239 -1.25e-4,0.57358 -8.8e-5,0.0944 -1.31e-4,0.18877 -1.73e-4,0.28316 0,0 -1.241384,0.63246 -1.241384,0.63246 v 0 c 3.3e-5,-0.0944 6.3e-5,-0.18884 1.65e-4,-0.28326 2.31e-4,-0.19128 6.61e-4,-0.38255 0.0013,-0.57382 4.24e-4,-0.20828 0.0015,-0.41669 -0.0077,-0.62482 -0.01185,-0.19751 -0.03367,-0.39411 -0.08618,-0.58556 -0.04594,-0.20082 -0.05901,-0.40843 -0.102775,-0.61011 -0.0107,-0.21262 -0.0303,-0.42442 -0.07408,-0.63315 -0.04147,-0.27195 -0.02697,-0.55077 -0.0765,-0.8225 -0.04618,-0.32913 -0.110478,-0.65656 -0.131037,-0.9886 0,0 1.25001,-0.63691 1.25001,-0.63691 z"
       inkscape:connector-curvature="0" />
    <path
       style="fill:#00be00;fill-opacity:1;stroke:#00be00;stroke-width:0.5;stroke-opacity:1;stroke-miterlimit:4;stroke-dasharray:none"
       id="path825"
       d="m 15.453031,270.96352 c -0.142904,0.77485 -0.170496,1.56498 -0.198974,2.35052 -0.0234,0.75496 -0.0155,1.5102 -0.0047,2.26525 0.0054,0.29028 0.01244,0.58052 0.01594,0.87083 0.002,0.18894 0.002,0.37788 0.0021,0.56683 -0.0017,0.21045 -0.002,0.4209 -0.0014,0.63137 0,0 -1.238757,0.63117 -1.238757,0.63117 v 0 c 5.55e-4,-0.20994 2.91e-4,-0.41987 -0.0015,-0.62981 -7.4e-5,-0.18936 -2.64e-4,-0.37873 9.27e-4,-0.5681 0.0024,-0.29616 0.0083,-0.59226 0.01623,-0.88833 0.01886,-0.76755 0.04706,-1.53486 0.06955,-2.30231 0.0237,-0.77101 0.04557,-1.54216 0.0831,-2.31261 0,0 1.257538,-0.61481 1.257538,-0.61481 z"
       inkscape:connector-curvature="0" />
    <path
       style="fill:#00be00;fill-opacity:1;stroke:#00be00;stroke-width:0.5;stroke-opacity:1;stroke-miterlimit:4;stroke-dasharray:none"
       id="path827"
       d="m 19.332244,270.68161 c 2.3e-4,0.56588 0.07556,1.12845 0.151635,1.68815 0.07035,0.5551 0.154343,1.1067 0.274575,1.65314 0.0503,0.28024 0.101267,0.55864 0.168587,0.83521 0.04692,0.2037 0.05462,0.41381 0.06154,0.62196 0.0035,0.21864 0.0024,0.43736 0.0028,0.65603 -0.0012,0.22058 -0.0015,0.44115 -7.67e-4,0.66174 7.14e-4,0.19746 0.0011,0.39493 0.0012,0.59241 7.5e-5,0.0947 9.4e-5,0.18932 1.15e-4,0.28398 0,0 -1.24134,0.6325 -1.24134,0.6325 v 0 c 1.8e-5,-0.0947 3.4e-5,-0.1894 1.09e-4,-0.2841 1.86e-4,-0.19795 5.29e-4,-0.39589 0.0014,-0.59383 9e-4,-0.22062 9.79e-4,-0.44124 6.62e-4,-0.66185 0.0011,-0.21735 0.002,-0.43469 -0.002,-0.65202 -0.004,-0.19981 -0.0089,-0.40091 -0.04934,-0.59737 -0.05991,-0.28219 -0.101918,-0.56556 -0.145894,-0.85069 -0.106647,-0.55624 -0.173125,-1.11783 -0.243035,-1.67971 -0.0794,-0.55652 -0.154519,-1.11366 -0.225131,-1.67127 0,0 1.244846,-0.63428 1.244846,-0.63428 z"
       inkscape:connector-curvature="0" />
    <path
       style="fill:#00be00;fill-opacity:1;stroke:#00be00;stroke-width:0.5;stroke-opacity:1;stroke-miterlimit:4;stroke-dasharray:none"
       id="path829"
       d="m 23.396779,272.27605 c -0.01175,0.27807 -0.0104,0.55655 -0.0087,0.83481 -7.67e-4,0.25448 0.0022,0.50894 0.0039,0.76341 -0.0017,0.22213 -1.59e-4,0.44426 6.62e-4,0.66639 0.0027,0.21796 -0.0018,0.43588 -0.0026,0.65382 2.56e-4,0.22502 0.0019,0.45003 0.0028,0.67504 6.88e-4,0.19226 7.94e-4,0.38451 8.47e-4,0.57677 2.1e-5,0.12574 1.4e-5,0.0629 2.1e-5,0.18859 0,0 -1.241383,0.63251 -1.241383,0.63251 v 0 c 7e-6,-0.12572 0,-0.0628 2.1e-5,-0.18861 6.6e-5,-0.19254 1.65e-4,-0.38509 8.47e-4,-0.57763 8.73e-4,-0.22596 0.0025,-0.45192 0.0028,-0.67788 -8.2e-4,-0.21706 -0.0053,-0.4341 -0.0026,-0.65117 8.2e-4,-0.22235 0.0024,-0.44471 6.62e-4,-0.66706 0.0017,-0.2558 0.0047,-0.51161 0.0039,-0.76743 0.0017,-0.27531 0.0033,-0.55085 -0.0087,-0.82597 0,0 1.247428,-0.63559 1.247428,-0.63559 z"
       inkscape:connector-curvature="0" />
    <path
       style="fill:#00be00;fill-opacity:1;stroke:#00be00;stroke-width:0.5;stroke-opacity:1;stroke-miterlimit:4;stroke-dasharray:none"
       id="path831"
       d="m 11.212911,257.80826 c 0.02726,0.61064 0.132844,1.21342 0.230763,1.81561 0.08554,0.57809 0.236261,1.14113 0.378572,1.70656 0.07148,0.25255 0.165516,0.49768 0.245756,0.74728 0.05743,0.18575 0.07127,0.37963 0.07905,0.57264 0.003,0.0942 0.0032,0.18844 0.0035,0.28267 0,0 -1.241337,0.63284 -1.241337,0.63284 v 0 c -5.5e-5,-0.0929 3.3e-5,-0.1858 -0.0017,-0.27869 -0.0048,-0.18169 -0.01199,-0.36474 -0.05977,-0.54123 -0.07469,-0.25651 -0.166107,-0.50797 -0.224242,-0.76943 -0.125845,-0.57669 -0.262091,-1.15062 -0.342556,-1.7363 -0.09702,-0.59275 -0.208388,-1.18303 -0.3045454,-1.77596 0,0 1.2365494,-0.65599 1.2365494,-0.65599 z"
       inkscape:connector-curvature="0" />
    <path
       style="fill:#00be00;fill-opacity:1;stroke:#00be00;stroke-width:0.5;stroke-opacity:1;stroke-miterlimit:4;stroke-dasharray:none"
       id="path833"
       d="m 14.9881,256.57807 c -0.04891,0.69418 -0.04353,1.39094 -0.04129,2.08642 -0.01578,0.65219 0.03515,1.30198 0.07183,1.95241 0.01986,0.48583 0.07886,0.96862 0.11005,1.45379 0.02049,0.38424 0.03183,0.76905 0.0365,1.15381 0.0025,0.19544 0.0013,0.0998 0.0035,0.28683 0,0 -1.231405,0.62758 -1.231405,0.62758 v 0 c 0.0019,-0.18854 0.0011,-0.0922 0.0024,-0.28903 8e-6,-0.38498 0.0018,-0.77011 -0.01871,-1.15471 -0.02685,-0.48736 -0.08111,-0.97267 -0.09955,-1.46043 -0.03096,-0.65816 -0.06308,-1.31625 -0.04201,-1.97541 0.0022,-0.68142 0.0089,-1.36433 -0.04129,-2.04435 0,0 1.25001,-0.63691 1.25001,-0.63691 z"
       inkscape:connector-curvature="0" />
    <path
       style="fill:#00be00;fill-opacity:1;stroke:#00be00;stroke-width:0.5;stroke-opacity:1;stroke-miterlimit:4;stroke-dasharray:none"
       id="path835"
       d="m 18.947812,256.6618 c -0.04335,0.79303 -0.03867,1.5876 -0.03389,2.38148 -0.006,0.78696 0.06242,1.57228 0.162772,2.3521 0.08949,0.69314 0.166359,1.38806 0.214559,2.08535 0.02211,0.31901 0.03483,0.63853 0.03937,0.95825 0.001,0.1368 6.87e-4,0.0693 0.0011,0.20261 0,0 -1.240542,0.63153 -1.240542,0.63153 v 0 c 0.0013,-0.134 6.08e-4,-0.0661 0.0022,-0.20367 0.0042,-0.32322 0.0083,-0.64653 -0.0013,-0.96971 -0.02567,-0.70008 -0.07607,-1.39925 -0.17785,-2.09286 -0.104529,-0.78541 -0.189065,-1.57682 -0.164439,-2.37043 0.0047,-0.78235 0.01035,-1.56549 -0.03389,-2.34695 0,0 1.231934,-0.6277 1.231934,-0.6277 z"
       inkscape:connector-curvature="0" />
    <path
       style="fill:#00be00;fill-opacity:1;stroke:#00be00;stroke-width:0.5;stroke-opacity:1;stroke-miterlimit:4;stroke-dasharray:none"
       id="path837"
       d="m 22.640827,257.34599 c -0.02478,0.44498 -0.02236,0.89107 -0.02116,1.33659 0.0017,0.3965 0.0086,0.79293 0.0094,1.18943 1.31e-4,0.28756 0.0051,0.57511 0.0047,0.86267 6.08e-4,0.22608 0.0023,0.45216 0.0032,0.67824 6.88e-4,0.19196 7.67e-4,0.38392 8.2e-4,0.57587 3.2e-5,0.1886 1.1e-5,0.3772 2e-6,0.56579 -7e-6,0.15742 -1e-5,0.31484 -1.2e-5,0.47226 0,0 -1.241336,0.6325 -1.241336,0.6325 v 0 c -2e-6,-0.15742 -5e-6,-0.31484 -1.3e-5,-0.47225 -9e-6,-0.1886 -2.9e-5,-0.3772 2e-6,-0.56579 6e-5,-0.19224 1.44e-4,-0.38448 8.21e-4,-0.57672 8.99e-4,-0.22718 0.0026,-0.45436 0.0032,-0.68154 -4.76e-4,-0.28914 0.0045,-0.57828 0.0047,-0.86743 8.2e-4,-0.39968 0.0077,-0.79931 0.0094,-1.19899 0.0012,-0.43833 0.0041,-0.87729 -0.02116,-1.31504 0,0 1.247429,-0.63559 1.247429,-0.63559 z"
       inkscape:connector-curvature="0" />
    <path
       style="fill:#00be00;fill-opacity:1;stroke:#00be00;stroke-width:0.5;stroke-opacity:1;stroke-miterlimit:4;stroke-dasharray:none"
       id="path839"
       d="m 11.470521,285.27138 c -0.124265,0.52189 -0.148231,1.06158 -0.171035,1.59568 -0.01578,0.45668 -0.01508,0.9137 -0.01441,1.37059 0.0016,0.30858 0.0059,0.61713 0.0098,0.92569 -1.18e-4,0.24826 -4.5e-4,0.4965 9.52e-4,0.74475 0.0014,0.20555 0.0021,0.41109 0.0025,0.61665 3.8e-5,0.0318 7.6e-5,0.0636 1.14e-4,0.0954 0,0 -1.241104,0.63237 -1.241104,0.63237 v 0 c 3.9e-5,-0.0318 7.8e-5,-0.0637 1.17e-4,-0.0956 3.7e-4,-0.20638 0.0011,-0.41275 0.0024,-0.61912 0.0013,-0.24838 9e-4,-0.49674 1.52e-4,-0.74512 0.003,-0.31179 0.0059,-0.62357 0.0081,-0.93536 0.0028,-0.46192 0.0089,-0.92391 0.03063,-1.3854 0.02601,-0.53306 0.05891,-1.06604 0.119204,-1.5965 0,0 1.252623,-0.60411 1.252623,-0.60411 z"
       inkscape:connector-curvature="0" />
    <path
       style="fill:#00be00;fill-opacity:1;stroke:#00be00;stroke-width:0.5;stroke-opacity:1;stroke-miterlimit:4;stroke-dasharray:none"
       id="path841"
       d="m 14.041869,284.37128 c -0.03887,0.47324 0.0202,0.9449 0.07517,1.41413 0.114141,0.82312 0.216795,1.64775 0.327651,2.47137 0.06514,0.47134 0.119833,0.94372 0.148636,1.4187 0.01266,0.22247 0.014,0.44532 0.01409,0.66807 -3.97e-4,0.18701 -0.001,0.37402 -0.0013,0.56103 -3.9e-5,0.0313 -7.8e-5,0.0625 -1.17e-4,0.0938 0,0 -1.241542,0.63246 -1.241542,0.63246 v 0 c 1.4e-5,-0.0313 2.8e-5,-0.0625 4.2e-5,-0.0938 1.55e-4,-0.18719 3.7e-4,-0.37439 0.0017,-0.56159 0.0017,-0.22332 0.0049,-0.44666 0.0026,-0.67 -0.0085,-0.47968 -0.03986,-0.95866 -0.0917,-1.43565 -0.09176,-0.82457 -0.193686,-1.64773 -0.3364,-2.46528 -0.06921,-0.46399 -0.142176,-0.9272 -0.146295,-1.39761 0,0 1.247428,-0.6356 1.247428,-0.6356 z"
       inkscape:connector-curvature="0" />
    <path
       style="fill:#00be00;fill-opacity:1;stroke:#00be00;stroke-width:0.5;stroke-opacity:1;stroke-miterlimit:4;stroke-dasharray:none"
       id="path843"
       d="m 18.937615,284.31618 c -0.148906,0.55713 -0.202732,1.13281 -0.246107,1.70597 -0.04042,0.66462 -0.04813,1.33073 -0.05418,1.99637 -0.0086,0.70525 -0.0038,1.41056 0.0098,2.1157 0.0072,0.31936 0.01586,0.63868 0.02003,0.9581 0.0018,0.15991 0.002,0.31983 0.0021,0.47975 0,0 -1.241745,0.6327 -1.241745,0.6327 v 0 c 1.17e-4,-0.16059 2.91e-4,-0.32119 0.002,-0.48177 0.004,-0.32592 0.01198,-0.65176 0.01848,-0.97763 0.01202,-0.70867 0.01495,-1.41744 0.0092,-2.12619 -3.71e-4,-0.66714 -0.004,-1.33493 0.04255,-2.0009 0.04153,-0.56875 0.100673,-1.13546 0.181087,-1.70007 0,0 1.256752,-0.60203 1.256752,-0.60203 z"
       inkscape:connector-curvature="0" />
    <path
       style="fill:#00be00;fill-opacity:1;stroke:#00be00;stroke-width:0.5;stroke-opacity:1;stroke-miterlimit:4;stroke-dasharray:none"
       id="path845"
       d="m 22.9256,285.30426 c -0.0559,0.36496 -0.146575,0.72344 -0.205901,1.08828 -0.0987,0.72107 -0.104658,1.45079 -0.114633,2.1773 -0.0027,0.61178 0.0038,1.22353 0.01747,1.83515 0.0023,0.16935 0.0055,0.33868 0.0084,0.50801 0,0 -1.22877,0.62632 -1.22877,0.62632 v 0 c 0.0025,-0.17195 0.0051,-0.3439 0.0069,-0.51585 0.01202,-0.61966 0.01786,-1.23939 0.02587,-1.8591 0.0065,-0.72513 0.0065,-1.45206 0.06926,-2.17497 0.04748,-0.35121 0.117883,-0.69836 0.171376,-1.04823 0,0 1.250011,-0.63691 1.25001,-0.63691 z"
       inkscape:connector-curvature="0" />
  </g>
</svg>
