<?xml version="1.0" encoding="UTF-8" standalone="no"?>
<!-- Created with Inkscape (http://www.inkscape.org/) -->

<svg
   xmlns:osb="http://www.openswatchbook.org/uri/2009/osb"
   xmlns:dc="http://purl.org/dc/elements/1.1/"
   xmlns:cc="http://creativecommons.org/ns#"
   xmlns:rdf="http://www.w3.org/1999/02/22-rdf-syntax-ns#"
   xmlns:svg="http://www.w3.org/2000/svg"
   xmlns="http://www.w3.org/2000/svg"
   xmlns:sodipodi="http://sodipodi.sourceforge.net/DTD/sodipodi-0.dtd"
   xmlns:inkscape="http://www.inkscape.org/namespaces/inkscape"
   width="125"
   height="175"
   viewBox="0 0 33.072916 46.302085"
   version="1.1"
   id="svg8"
   inkscape:version="0.92.5 (2060ec1f9f, 2020-04-08)"
   sodipodi:docname="purple-1-diamond-striped.svg">
  <defs
     id="defs2">
    <linearGradient
       id="linearGradient841"
       osb:paint="solid">
      <stop
         style="stop-color:#a100ff;stop-opacity:1;"
         offset="0"
         id="stop839" />
    </linearGradient>
  </defs>
  <sodipodi:namedview
     id="base"
     pagecolor="#ffffff"
     bordercolor="#666666"
     borderopacity="1.0"
     inkscape:pageopacity="0.0"
     inkscape:pageshadow="2"
     inkscape:zoom="2.8"
     inkscape:cx="-11.279517"
     inkscape:cy="91.996365"
     inkscape:document-units="mm"
     inkscape:current-layer="layer1"
     showgrid="false"
     units="px"
     inkscape:snap-midpoints="true"
     inkscape:window-width="1366"
     inkscape:window-height="705"
     inkscape:window-x="-8"
     inkscape:window-y="-8"
     inkscape:window-maximized="1" />
  <metadata
     id="metadata5">
    <rdf:RDF>
      <cc:Work
         rdf:about="">
        <dc:format>image/svg+xml</dc:format>
        <dc:type
           rdf:resource="http://purl.org/dc/dcmitype/StillImage" />
        <dc:title></dc:title>
      </cc:Work>
    </rdf:RDF>
  </metadata>
  <g
     inkscape:label="Layer 1"
     inkscape:groupmode="layer"
     id="layer1"
     transform="translate(0,-250.6979)">
    <path
       style="fill:none;fill-opacity:1;stroke:#c800ff;stroke-width:0.5;stroke-linecap:butt;stroke-linejoin:miter;stroke-miterlimit:4;stroke-dasharray:none;stroke-opacity:1"
       d="m 25.959146,273.97846 -9.473688,-5.19408 -9.6544879,5.23747 9.6385839,5.19421 z"
       id="path3123-3"
       inkscape:connector-curvature="0" />
    <path
       style="fill:#c800ff;fill-opacity:1;stroke:#c800ff;stroke-width:0.5;stroke-miterlimit:4;stroke-dasharray:none;stroke-opacity:1"
       id="path882"
       d="m 11.112553,272.27605 c -0.01031,0.24047 -0.0068,0.48131 -0.0055,0.72194 -0.0017,0.23012 2.53e-4,0.46023 0.0013,0.69035 8.47e-4,0.19481 0.0011,0.38963 0.0012,0.58445 -0.0016,0.21176 -0.0019,0.42352 -0.0013,0.63529 6.61e-4,0.19729 0.001,0.39459 0.0012,0.59188 7.8e-5,0.12659 4.6e-5,0.0633 9.5e-5,0.18972 0,0 -1.2412807,0.63247 -1.2412807,0.63247 v 0 c 4.94e-5,-0.12644 1.74e-5,-0.0632 9.57e-5,-0.18982 1.831e-4,-0.1977 5.292e-4,-0.39539 0.00119,-0.59309 5.821e-4,-0.21134 3.439e-4,-0.42267 -0.00127,-0.634 1.235e-4,-0.19522 3.439e-4,-0.39044 0.00119,-0.58566 0.00101,-0.23054 0.00295,-0.46109 0.00127,-0.69164 0.0013,-0.23874 0.00488,-0.47771 -0.00554,-0.7163 0,0 1.247428,-0.63559 1.247428,-0.63559 z"
       inkscape:connector-curvature="0" />
    <path
       style="fill:#c800ff;fill-opacity:1;stroke:#c800ff;stroke-width:0.5;stroke-miterlimit:4;stroke-dasharray:none;stroke-opacity:1"
       id="path884"
       d="m 14.608833,270.48066 c -0.01552,0.33645 -0.01371,0.67348 -0.01438,1.01022 0.0014,0.42962 -0.0045,0.8592 -0.0049,1.28881 -7.41e-4,0.43107 0.0033,0.8621 0.0047,1.29316 0.0014,0.32282 0.0038,0.64563 0.0069,0.96844 -0.01446,0.25671 0.0167,0.50744 0.07725,0.75615 0.05845,0.21014 0.08999,0.42532 0.106595,0.64234 0.01152,0.19083 0.011,0.3821 0.01105,0.57319 -1.79e-4,0.12577 -6.8e-5,0.0629 -3.44e-4,0.18864 0,0 -1.241519,0.63224 -1.241519,0.63224 v 0 c 2.91e-4,-0.12565 1.45e-4,-0.0628 4.23e-4,-0.18844 2.91e-4,-0.18848 0.0014,-0.37705 -0.006,-0.56543 -0.01137,-0.21049 -0.03477,-0.42008 -0.089,-0.62443 -0.06291,-0.25903 -0.109695,-0.51829 -0.0904,-0.78654 0.0031,-0.32515 0.0055,-0.65031 0.0069,-0.97547 0.0014,-0.43264 0.0054,-0.86527 0.0047,-1.29792 -3.97e-4,-0.42794 -0.0064,-0.85585 -0.0049,-1.2838 -6.62e-4,-0.33185 0.0014,-0.66402 -0.01438,-0.99557 0,0 1.247428,-0.63559 1.247428,-0.63559 z"
       inkscape:connector-curvature="0" />
    <path
       style="fill:#c800ff;fill-opacity:1;stroke:#c800ff;stroke-width:0.5;stroke-miterlimit:4;stroke-dasharray:none;stroke-opacity:1"
       id="path886"
       d="m 19.806005,270.66965 c -0.01944,0.41338 -0.01865,0.82753 -0.02319,1.24129 -0.005,0.60362 -0.0061,1.20725 -0.0024,1.81087 0.0032,0.41002 0.0097,0.82001 0.01653,1.22999 0.0038,0.21638 0.0052,0.4328 0.0059,0.64921 3.7e-4,0.18737 2.64e-4,0.37473 2.24e-4,0.5621 -4.7e-5,0.18846 -6.6e-5,0.37692 -7.8e-5,0.56537 -8e-6,0.18898 -8e-6,0.37796 -8e-6,0.56694 0,0 -1.241332,0.63249 -1.241332,0.63249 v 0 c 0,-0.18897 0,-0.37795 -9e-6,-0.56693 -1.1e-5,-0.18843 -3e-5,-0.37686 -7.7e-5,-0.56529 -4e-5,-0.18744 -1.45e-4,-0.37489 2.24e-4,-0.56233 6.35e-4,-0.21841 0.0021,-0.43681 0.0059,-0.65519 0.0068,-0.41559 0.0133,-0.83119 0.01653,-1.24683 0.0037,-0.60281 0.0026,-1.20563 -0.0024,-1.80843 -0.0045,-0.40588 -0.0035,-0.81218 -0.02319,-1.21767 0,0 1.247428,-0.63559 1.247428,-0.63559 z"
       inkscape:connector-curvature="0" />
    <path
       style="fill:#c800ff;fill-opacity:1;stroke:#c800ff;stroke-width:0.5;stroke-miterlimit:4;stroke-dasharray:none;stroke-opacity:1"
       id="path888"
       d="m 23.587059,272.73655 c -0.0098,0.22039 -0.0057,0.4411 -0.0074,0.66163 7.41e-4,0.2403 0.01258,0.47866 -0.03132,0.71574 -0.06777,0.23048 -0.116548,0.4632 -0.139434,0.70226 -0.01241,0.15633 -0.01482,0.31316 -0.01674,0.46989 0,0 -1.238669,0.62881 -1.238669,0.62881 v 0 c 0.0028,-0.16038 0.0065,-0.32078 0.01719,-0.48086 0.01791,-0.24443 0.0454,-0.48603 0.128638,-0.71853 0.06232,-0.22533 0.04436,-0.45589 0.04509,-0.68792 -0.0017,-0.21802 0.0025,-0.43623 -0.0074,-0.6541 0,0 1.25001,-0.63692 1.25001,-0.63692 z"
       inkscape:connector-curvature="0" />
  </g>
</svg>
