<?xml version="1.0" encoding="UTF-8" standalone="no"?>
<!-- Created with Inkscape (http://www.inkscape.org/) -->

<svg
   xmlns:osb="http://www.openswatchbook.org/uri/2009/osb"
   xmlns:dc="http://purl.org/dc/elements/1.1/"
   xmlns:cc="http://creativecommons.org/ns#"
   xmlns:rdf="http://www.w3.org/1999/02/22-rdf-syntax-ns#"
   xmlns:svg="http://www.w3.org/2000/svg"
   xmlns="http://www.w3.org/2000/svg"
   xmlns:sodipodi="http://sodipodi.sourceforge.net/DTD/sodipodi-0.dtd"
   xmlns:inkscape="http://www.inkscape.org/namespaces/inkscape"
   width="125"
   height="175"
   viewBox="0 0 33.072916 46.302085"
   version="1.1"
   id="svg8"
   inkscape:version="0.92.5 (2060ec1f9f, 2020-04-08)"
   sodipodi:docname="purple-3-squiggly-open.svg">
  <defs
     id="defs2">
    <linearGradient
       id="linearGradient841"
       osb:paint="solid">
      <stop
         style="stop-color:#a100ff;stop-opacity:1;"
         offset="0"
         id="stop839" />
    </linearGradient>
  </defs>
  <sodipodi:namedview
     id="base"
     pagecolor="#ffffff"
     bordercolor="#666666"
     borderopacity="1.0"
     inkscape:pageopacity="0.0"
     inkscape:pageshadow="2"
     inkscape:zoom="2.8"
     inkscape:cx="-30.820226"
     inkscape:cy="91.996365"
     inkscape:document-units="mm"
     inkscape:current-layer="layer1"
     showgrid="false"
     units="px"
     inkscape:snap-midpoints="true"
     inkscape:window-width="1366"
     inkscape:window-height="705"
     inkscape:window-x="-8"
     inkscape:window-y="-8"
     inkscape:window-maximized="1" />
  <metadata
     id="metadata5">
    <rdf:RDF>
      <cc:Work
         rdf:about="">
        <dc:format>image/svg+xml</dc:format>
        <dc:type
           rdf:resource="http://purl.org/dc/dcmitype/StillImage" />
        <dc:title></dc:title>
      </cc:Work>
    </rdf:RDF>
  </metadata>
  <g
     inkscape:label="Layer 1"
     inkscape:groupmode="layer"
     id="layer1"
     transform="translate(0,-250.6979)">
    <path
       d="m 22.68894,255.92968 c -0.25583,-0.14016 -0.535234,-0.18983 -0.810467,-0.25802 -0.380646,-0.0943 -0.790654,-0.0746 -1.172781,-0.0196 -0.119564,0.0173 -0.237499,0.0478 -0.352675,0.0883 -0.237702,0.0835 -0.476257,0.15704 -0.700343,0.28111 -1.20331,0.66615 -1.99767,1.95146 -2.744405,3.17321 -0.269315,0.44066 -0.539957,0.8833 -0.845972,1.29172 -0.132617,0.15245 -0.273091,0.29575 -0.423962,0.42345 -0.05747,0.0341 -0.116097,0.0655 -0.17588,0.094 -0.08886,0.0232 -0.178739,0.0417 -0.269098,0.0551 -0.01915,-0.002 -0.03826,-0.003 -0.05736,-0.004 -0.0036,-0.003 -0.007,-0.006 -0.01051,-0.009 -0.141948,-0.18345 -0.264371,-0.38648 -0.380135,-0.59335 -0.175523,-0.32796 -0.34948,-0.65769 -0.54382,-0.97121 -0.245922,-0.39672 -0.547384,-0.73415 -0.872812,-1.04622 -0.114523,-0.10983 -0.238779,-0.2057 -0.36959,-0.28789 -0.244847,-0.15382 -0.492967,-0.31365 -0.761261,-0.40846 -0.25543,-0.0902 -0.52203,-0.1562 -0.788055,-0.18932 -0.261759,-0.0326 -0.534119,-0.006 -0.793561,0.0144 -0.137471,0.0108 -0.273831,0.037 -0.407919,0.073 -0.2612167,0.0702 -0.5190757,0.16528 -0.7699068,0.27447 -0.395267,0.17206 -0.751865,0.4369 -1.105232,0.69923 -0.612634,0.45482 -1.126378,1.06698 -1.598179,1.70034 -0.152947,0.20532 -0.296179,0.4203 -0.42854,0.64372 -0.234831,0.39641 -0.333689,0.87278 -0.261578,1.34742 0.0713,0.46915 0.30443,0.89161 0.643453,1.1655 0.692048,0.5591 1.703442,0.37356 2.184908,-0.4392 0.143067,-0.24149 0.299247,-0.47228 0.465807,-0.69281 0.2701291,-0.31586 0.5634471,-0.60616 0.8810948,-0.85675 0.168724,-0.10975 0.343531,-0.20667 0.524506,-0.28628 0.08979,-0.0244 0.180504,-0.0438 0.27196,-0.0577 0.05295,0.003 0.105794,0.008 0.158448,0.0145 0.04443,0.0164 0.08837,0.0344 0.131759,0.0541 0.05703,0.0427 0.112392,0.0882 0.166089,0.13626 0.188379,0.23412 0.348692,0.49569 0.499205,0.76409 0.172158,0.32263 0.342595,0.64737 0.535399,0.95396 0.07564,0.1203 0.156738,0.23609 0.244923,0.34456 0.17678,0.21739 0.367989,0.42671 0.5772,0.6028 0.209201,0.17609 0.449461,0.3117 0.687955,0.42484 0.05817,0.0276 0.118222,0.0496 0.17897,0.0684 0.194502,0.06 0.393239,0.11139 0.593164,0.14275 0.279031,0.0438 0.572259,0.0134 0.849241,-0.0154 0.178234,-0.0186 0.355517,-0.0604 0.527708,-0.11592 0.230666,-0.0743 0.471956,-0.1525 0.691925,-0.26939 0.222593,-0.11828 0.43224,-0.28355 0.635894,-0.43414 0.20377,-0.15067 0.388289,-0.33401 0.559757,-0.53016 0.47664,-0.54527 0.888685,-1.14329 1.276609,-1.77219 0.355757,-0.57671 0.698793,-1.16897 1.101492,-1.7046 0.142857,-0.16448 0.294456,-0.31884 0.45756,-0.45582 0.06392,-0.0385 0.129207,-0.0738 0.195834,-0.10557 0.04526,-0.0108 0.09078,-0.0199 0.136542,-0.0274 0.06394,0.004 0.127738,0.009 0.191254,0.0185 0.03217,0.0121 0.06398,0.0254 0.09554,0.0393 0.0427,0.0327 0.08428,0.0673 0.124909,0.10332 0.107445,0.1345 0.205208,0.27881 0.295581,0.4292 0.286765,0.5764 0.499982,1.19868 0.709693,1.81595 0.216784,0.63816 0.420246,1.29493 0.727433,1.88506 0.0719,0.13215 0.143792,0.26431 0.215684,0.39647 0.184531,0.25406 0.411987,0.43785 0.682357,0.5513 0.382802,0.15768 0.811708,0.13549 1.181319,-0.0587 0.381829,-0.20064 0.682469,-0.57829 0.824045,-1.03287 0.02864,-0.15239 0.05731,-0.30476 0.08598,-0.45712 0.02137,-0.31398 -0.02431,-0.6145 -0.136998,-0.90153 -0.328462,-0.63099 -0.540293,-1.337 -0.772978,-2.01881 -0.127065,-0.37236 -0.257845,-0.74331 -0.405449,-1.10565 -0.195997,-0.48113 -0.43276,-0.941 -0.694862,-1.37822 -0.249176,-0.41563 -0.57405,-0.78208 -0.920384,-1.08854 -0.222187,-0.19655 -0.487107,-0.34141 -0.736488,-0.47806 z"
       id="path4"
       inkscape:connector-curvature="0"
       style="fill:none;fill-opacity:1;stroke:#c800ff;stroke-width:0.5;stroke-miterlimit:4;stroke-dasharray:none;stroke-opacity:1" />
    <path
       d="m 22.825484,269.6607 c -0.25583,-0.14016 -0.535234,-0.18983 -0.810467,-0.25802 -0.380646,-0.0943 -0.790654,-0.0746 -1.172781,-0.0196 -0.119564,0.0173 -0.237499,0.0478 -0.352675,0.0883 -0.237702,0.0835 -0.476257,0.15704 -0.700343,0.28111 -1.20331,0.66615 -1.99767,1.95146 -2.744405,3.17321 -0.269315,0.44066 -0.539957,0.8833 -0.845972,1.29172 -0.132617,0.15245 -0.273091,0.29575 -0.423962,0.42345 -0.05747,0.0341 -0.116097,0.0655 -0.17588,0.094 -0.08886,0.0232 -0.178739,0.0417 -0.269098,0.0551 -0.01915,-0.002 -0.03826,-0.003 -0.05736,-0.004 -0.0036,-0.003 -0.007,-0.006 -0.01051,-0.009 -0.141949,-0.18345 -0.264372,-0.38648 -0.380136,-0.59335 -0.175523,-0.32796 -0.34948,-0.65769 -0.54382,-0.97121 -0.245922,-0.39672 -0.547384,-0.73415 -0.872812,-1.04622 -0.114523,-0.10983 -0.238779,-0.2057 -0.36959,-0.28789 -0.244847,-0.15382 -0.492967,-0.31365 -0.761261,-0.40846 -0.25543,-0.0902 -0.52203,-0.1562 -0.788055,-0.18932 -0.261759,-0.0326 -0.534119,-0.006 -0.793561,0.0144 -0.137471,0.0108 -0.273831,0.037 -0.40792,0.073 -0.261216,0.0702 -0.5190753,0.16528 -0.7699063,0.27447 -0.3952669,0.17206 -0.7518649,0.4369 -1.105232,0.69923 -0.612634,0.45482 -1.126378,1.06698 -1.598179,1.70034 -0.152947,0.20532 -0.296179,0.4203 -0.42854,0.64372 -0.234831,0.39641 -0.333689,0.87278 -0.261578,1.34742 0.0713,0.46915 0.30443,0.89161 0.643453,1.1655 0.692048,0.5591 1.703442,0.37356 2.184908,-0.4392 0.143067,-0.24149 0.2992469,-0.47228 0.4658071,-0.69281 0.270129,-0.31586 0.5634472,-0.60616 0.8810952,-0.85675 0.168724,-0.10975 0.343531,-0.20667 0.524506,-0.28628 0.08979,-0.0244 0.180504,-0.0438 0.27196,-0.0577 0.05295,0.003 0.105794,0.008 0.158448,0.0145 0.04443,0.0164 0.08837,0.0344 0.131759,0.0541 0.05703,0.0427 0.112392,0.0882 0.166089,0.13626 0.188379,0.23412 0.348692,0.49569 0.499205,0.76409 0.172158,0.32263 0.342595,0.64737 0.535399,0.95396 0.07564,0.1203 0.156738,0.23609 0.244923,0.34456 0.17678,0.21739 0.367989,0.42671 0.5772,0.6028 0.209201,0.17609 0.449461,0.3117 0.687955,0.42484 0.05817,0.0276 0.118222,0.0496 0.17897,0.0684 0.194502,0.06 0.393239,0.11139 0.593164,0.14275 0.279031,0.0438 0.572259,0.0134 0.849241,-0.0154 0.178234,-0.0186 0.355517,-0.0604 0.527708,-0.11592 0.230666,-0.0743 0.471956,-0.1525 0.691925,-0.26939 0.222593,-0.11828 0.43224,-0.28355 0.635894,-0.43414 0.20377,-0.15067 0.388289,-0.33401 0.559757,-0.53016 0.47664,-0.54527 0.888685,-1.14329 1.276609,-1.77219 0.355757,-0.57671 0.698793,-1.16897 1.101492,-1.7046 0.142857,-0.16448 0.294456,-0.31884 0.45756,-0.45582 0.06392,-0.0385 0.129207,-0.0738 0.195834,-0.10557 0.04526,-0.0108 0.09078,-0.0199 0.136542,-0.0274 0.06394,0.004 0.127738,0.009 0.191254,0.0185 0.03217,0.0121 0.06398,0.0254 0.09554,0.0393 0.0427,0.0327 0.08428,0.0673 0.124909,0.10332 0.107445,0.1345 0.205208,0.27881 0.295581,0.4292 0.286765,0.5764 0.499982,1.19868 0.709693,1.81595 0.216784,0.63816 0.420246,1.29493 0.727433,1.88506 0.0719,0.13215 0.143792,0.26431 0.215684,0.39647 0.184531,0.25406 0.411987,0.43785 0.682357,0.5513 0.382802,0.15768 0.811708,0.13549 1.181319,-0.0587 0.381829,-0.20064 0.682469,-0.57829 0.824045,-1.03287 0.02864,-0.15239 0.05731,-0.30476 0.08598,-0.45712 0.02137,-0.31398 -0.02431,-0.6145 -0.136998,-0.90153 -0.328462,-0.63099 -0.540293,-1.337 -0.772978,-2.01881 -0.127065,-0.37236 -0.257845,-0.74331 -0.405449,-1.10565 -0.195997,-0.48113 -0.43276,-0.941 -0.694862,-1.37822 -0.249176,-0.41563 -0.57405,-0.78208 -0.920384,-1.08854 -0.222187,-0.19655 -0.487107,-0.34141 -0.736488,-0.47806 z"
       id="path4-1"
       inkscape:connector-curvature="0"
       style="fill:none;fill-opacity:1;stroke:#c800ff;stroke-width:0.5;stroke-miterlimit:4;stroke-dasharray:none;stroke-opacity:1" />
    <path
       d="m 23.279653,282.60876 c -0.25583,-0.14016 -0.535234,-0.18983 -0.810467,-0.25802 -0.380646,-0.0943 -0.790654,-0.0746 -1.172781,-0.0196 -0.119564,0.0173 -0.237499,0.0478 -0.352675,0.0883 -0.237702,0.0835 -0.476257,0.15704 -0.700343,0.28111 -1.20331,0.66615 -1.99767,1.95146 -2.744405,3.17321 -0.269315,0.44066 -0.539957,0.8833 -0.845972,1.29172 -0.132617,0.15245 -0.273091,0.29575 -0.423962,0.42345 -0.05747,0.0341 -0.116097,0.0655 -0.17588,0.094 -0.08886,0.0232 -0.178739,0.0417 -0.269098,0.0551 -0.01915,-0.002 -0.03826,-0.003 -0.05736,-0.004 -0.0036,-0.003 -0.007,-0.006 -0.01051,-0.009 -0.141949,-0.18345 -0.264372,-0.38648 -0.380136,-0.59335 -0.175523,-0.32796 -0.34948,-0.65769 -0.54382,-0.97121 -0.245922,-0.39672 -0.547384,-0.73415 -0.872812,-1.04622 -0.114523,-0.10983 -0.238779,-0.2057 -0.36959,-0.28789 -0.244847,-0.15382 -0.492967,-0.31365 -0.761261,-0.40846 -0.25543,-0.0902 -0.52203,-0.1562 -0.788055,-0.18932 -0.261759,-0.0326 -0.53412,-0.006 -0.793561,0.0144 -0.137471,0.0108 -0.273832,0.037 -0.407921,0.073 -0.261216,0.0702 -0.519075,0.16528 -0.769906,0.27447 -0.3952669,0.17206 -0.7518649,0.4369 -1.105232,0.69923 -0.612634,0.45482 -1.126378,1.06698 -1.598179,1.70034 -0.152947,0.20532 -0.296179,0.4203 -0.42854,0.64372 -0.234831,0.39641 -0.333689,0.87278 -0.261578,1.34742 0.0713,0.46915 0.30443,0.89161 0.643453,1.1655 0.692048,0.5591 1.703442,0.37356 2.184908,-0.4392 0.143067,-0.24149 0.2992469,-0.47228 0.4658071,-0.69281 0.2701289,-0.31586 0.5634469,-0.60616 0.8810959,-0.85675 0.168724,-0.10975 0.34353,-0.20667 0.524505,-0.28628 0.08979,-0.0244 0.180504,-0.0438 0.271961,-0.0577 0.05295,0.003 0.105794,0.008 0.158447,0.0145 0.04443,0.0164 0.08837,0.0344 0.13176,0.0541 0.05703,0.0427 0.112392,0.0882 0.166089,0.13626 0.188379,0.23412 0.348692,0.49569 0.499205,0.76409 0.172158,0.32263 0.342594,0.64737 0.535399,0.95396 0.07564,0.1203 0.156738,0.23609 0.244923,0.34456 0.17678,0.21739 0.367989,0.42671 0.5772,0.6028 0.209201,0.17609 0.449461,0.3117 0.687955,0.42484 0.05817,0.0276 0.118222,0.0496 0.17897,0.0684 0.194502,0.06 0.393239,0.11139 0.593164,0.14275 0.279031,0.0438 0.572259,0.0134 0.849241,-0.0154 0.178233,-0.0186 0.355516,-0.0604 0.527707,-0.11592 0.230666,-0.0743 0.471956,-0.1525 0.691925,-0.26939 0.222593,-0.11828 0.43224,-0.28355 0.635894,-0.43414 0.20377,-0.15067 0.388289,-0.33401 0.559757,-0.53016 0.47664,-0.54527 0.888685,-1.14329 1.276609,-1.77219 0.355757,-0.57671 0.698793,-1.16897 1.101492,-1.7046 0.142857,-0.16448 0.294456,-0.31884 0.45756,-0.45582 0.06392,-0.0385 0.129207,-0.0738 0.195834,-0.10557 0.04526,-0.0108 0.09078,-0.0199 0.136542,-0.0274 0.06394,0.004 0.127738,0.009 0.191254,0.0185 0.03217,0.0121 0.06398,0.0254 0.09554,0.0393 0.0427,0.0327 0.08428,0.0673 0.124909,0.10332 0.107445,0.1345 0.205208,0.27881 0.295581,0.4292 0.286765,0.5764 0.499982,1.19868 0.709693,1.81595 0.216784,0.63816 0.420246,1.29493 0.727433,1.88506 0.0719,0.13215 0.143792,0.26431 0.215684,0.39647 0.184531,0.25406 0.411987,0.43785 0.682357,0.5513 0.382802,0.15768 0.811708,0.13549 1.181319,-0.0587 0.381829,-0.20064 0.682469,-0.57829 0.824045,-1.03287 0.02864,-0.15239 0.05731,-0.30476 0.08598,-0.45712 0.02137,-0.31398 -0.02431,-0.6145 -0.136998,-0.90153 -0.328462,-0.63099 -0.540293,-1.337 -0.772978,-2.01881 -0.127065,-0.37236 -0.257845,-0.74331 -0.405449,-1.10565 -0.195997,-0.48113 -0.43276,-0.941 -0.694862,-1.37822 -0.249176,-0.41563 -0.57405,-0.78208 -0.920384,-1.08854 -0.222187,-0.19655 -0.487107,-0.34141 -0.736488,-0.47806 z"
       id="path4-1-7"
       inkscape:connector-curvature="0"
       style="fill:none;fill-opacity:1;stroke:#c800ff;stroke-width:0.5;stroke-miterlimit:4;stroke-dasharray:none;stroke-opacity:1" />
  </g>
</svg>
