<?xml version="1.0" encoding="UTF-8" standalone="no"?>
<!-- Created with Inkscape (http://www.inkscape.org/) -->

<svg
   xmlns:osb="http://www.openswatchbook.org/uri/2009/osb"
   xmlns:dc="http://purl.org/dc/elements/1.1/"
   xmlns:cc="http://creativecommons.org/ns#"
   xmlns:rdf="http://www.w3.org/1999/02/22-rdf-syntax-ns#"
   xmlns:svg="http://www.w3.org/2000/svg"
   xmlns="http://www.w3.org/2000/svg"
   xmlns:sodipodi="http://sodipodi.sourceforge.net/DTD/sodipodi-0.dtd"
   xmlns:inkscape="http://www.inkscape.org/namespaces/inkscape"
   width="125"
   height="175"
   viewBox="0 0 33.072916 46.302085"
   version="1.1"
   id="svg8"
   inkscape:version="0.92.5 (2060ec1f9f, 2020-04-08)"
   sodipodi:docname="purple-3-squiggly-striped.svg">
  <defs
     id="defs2">
    <linearGradient
       id="linearGradient841"
       osb:paint="solid">
      <stop
         style="stop-color:#a100ff;stop-opacity:1;"
         offset="0"
         id="stop839" />
    </linearGradient>
  </defs>
  <sodipodi:namedview
     id="base"
     pagecolor="#ffffff"
     bordercolor="#666666"
     borderopacity="1.0"
     inkscape:pageopacity="0.0"
     inkscape:pageshadow="2"
     inkscape:zoom="2.8"
     inkscape:cx="82.572631"
     inkscape:cy="91.996365"
     inkscape:document-units="mm"
     inkscape:current-layer="layer1"
     showgrid="false"
     units="px"
     inkscape:snap-midpoints="true"
     inkscape:window-width="1366"
     inkscape:window-height="705"
     inkscape:window-x="-8"
     inkscape:window-y="-8"
     inkscape:window-maximized="1" />
  <metadata
     id="metadata5">
    <rdf:RDF>
      <cc:Work
         rdf:about="">
        <dc:format>image/svg+xml</dc:format>
        <dc:type
           rdf:resource="http://purl.org/dc/dcmitype/StillImage" />
        <dc:title></dc:title>
      </cc:Work>
    </rdf:RDF>
  </metadata>
  <g
     inkscape:label="Layer 1"
     inkscape:groupmode="layer"
     id="layer1"
     transform="translate(0,-250.6979)">
    <path
       d="m 22.68894,255.92968 c -0.25583,-0.14016 -0.535234,-0.18983 -0.810467,-0.25802 -0.380646,-0.0943 -0.790654,-0.0746 -1.172781,-0.0196 -0.119564,0.0173 -0.237499,0.0478 -0.352675,0.0883 -0.237702,0.0835 -0.476257,0.15704 -0.700343,0.28111 -1.20331,0.66615 -1.99767,1.95146 -2.744405,3.17321 -0.269315,0.44066 -0.539957,0.8833 -0.845972,1.29172 -0.132617,0.15245 -0.273091,0.29575 -0.423962,0.42345 -0.05747,0.0341 -0.116097,0.0655 -0.17588,0.094 -0.08886,0.0232 -0.178739,0.0417 -0.269098,0.0551 -0.01915,-0.002 -0.03826,-0.003 -0.05736,-0.004 -0.0036,-0.003 -0.007,-0.006 -0.01051,-0.009 -0.141948,-0.18345 -0.264371,-0.38648 -0.380135,-0.59335 -0.175523,-0.32796 -0.34948,-0.65769 -0.54382,-0.97121 -0.245922,-0.39672 -0.547384,-0.73415 -0.872812,-1.04622 -0.114523,-0.10983 -0.238779,-0.2057 -0.36959,-0.28789 -0.244847,-0.15382 -0.492967,-0.31365 -0.761261,-0.40846 -0.25543,-0.0902 -0.52203,-0.1562 -0.788055,-0.18932 -0.261759,-0.0326 -0.534119,-0.006 -0.793561,0.0144 -0.137471,0.0108 -0.273831,0.037 -0.407919,0.073 -0.2612167,0.0702 -0.5190757,0.16528 -0.7699068,0.27447 -0.395267,0.17206 -0.751865,0.4369 -1.105232,0.69923 -0.612634,0.45482 -1.126378,1.06698 -1.598179,1.70034 -0.152947,0.20532 -0.296179,0.4203 -0.42854,0.64372 -0.234831,0.39641 -0.333689,0.87278 -0.261578,1.34742 0.0713,0.46915 0.30443,0.89161 0.643453,1.1655 0.692048,0.5591 1.703442,0.37356 2.184908,-0.4392 0.143067,-0.24149 0.299247,-0.47228 0.465807,-0.69281 0.2701291,-0.31586 0.5634471,-0.60616 0.8810948,-0.85675 0.168724,-0.10975 0.343531,-0.20667 0.524506,-0.28628 0.08979,-0.0244 0.180504,-0.0438 0.27196,-0.0577 0.05295,0.003 0.105794,0.008 0.158448,0.0145 0.04443,0.0164 0.08837,0.0344 0.131759,0.0541 0.05703,0.0427 0.112392,0.0882 0.166089,0.13626 0.188379,0.23412 0.348692,0.49569 0.499205,0.76409 0.172158,0.32263 0.342595,0.64737 0.535399,0.95396 0.07564,0.1203 0.156738,0.23609 0.244923,0.34456 0.17678,0.21739 0.367989,0.42671 0.5772,0.6028 0.209201,0.17609 0.449461,0.3117 0.687955,0.42484 0.05817,0.0276 0.118222,0.0496 0.17897,0.0684 0.194502,0.06 0.393239,0.11139 0.593164,0.14275 0.279031,0.0438 0.572259,0.0134 0.849241,-0.0154 0.178234,-0.0186 0.355517,-0.0604 0.527708,-0.11592 0.230666,-0.0743 0.471956,-0.1525 0.691925,-0.26939 0.222593,-0.11828 0.43224,-0.28355 0.635894,-0.43414 0.20377,-0.15067 0.388289,-0.33401 0.559757,-0.53016 0.47664,-0.54527 0.888685,-1.14329 1.276609,-1.77219 0.355757,-0.57671 0.698793,-1.16897 1.101492,-1.7046 0.142857,-0.16448 0.294456,-0.31884 0.45756,-0.45582 0.06392,-0.0385 0.129207,-0.0738 0.195834,-0.10557 0.04526,-0.0108 0.09078,-0.0199 0.136542,-0.0274 0.06394,0.004 0.127738,0.009 0.191254,0.0185 0.03217,0.0121 0.06398,0.0254 0.09554,0.0393 0.0427,0.0327 0.08428,0.0673 0.124909,0.10332 0.107445,0.1345 0.205208,0.27881 0.295581,0.4292 0.286765,0.5764 0.499982,1.19868 0.709693,1.81595 0.216784,0.63816 0.420246,1.29493 0.727433,1.88506 0.0719,0.13215 0.143792,0.26431 0.215684,0.39647 0.184531,0.25406 0.411987,0.43785 0.682357,0.5513 0.382802,0.15768 0.811708,0.13549 1.181319,-0.0587 0.381829,-0.20064 0.682469,-0.57829 0.824045,-1.03287 0.02864,-0.15239 0.05731,-0.30476 0.08598,-0.45712 0.02137,-0.31398 -0.02431,-0.6145 -0.136998,-0.90153 -0.328462,-0.63099 -0.540293,-1.337 -0.772978,-2.01881 -0.127065,-0.37236 -0.257845,-0.74331 -0.405449,-1.10565 -0.195997,-0.48113 -0.43276,-0.941 -0.694862,-1.37822 -0.249176,-0.41563 -0.57405,-0.78208 -0.920384,-1.08854 -0.222187,-0.19655 -0.487107,-0.34141 -0.736488,-0.47806 z"
       id="path4"
       inkscape:connector-curvature="0"
       style="fill:none;fill-opacity:1;stroke:#c800ff;stroke-width:0.5;stroke-miterlimit:4;stroke-dasharray:none;stroke-opacity:1" />
    <path
       d="m 22.825484,269.6607 c -0.25583,-0.14016 -0.535234,-0.18983 -0.810467,-0.25802 -0.380646,-0.0943 -0.790654,-0.0746 -1.172781,-0.0196 -0.119564,0.0173 -0.237499,0.0478 -0.352675,0.0883 -0.237702,0.0835 -0.476257,0.15704 -0.700343,0.28111 -1.20331,0.66615 -1.99767,1.95146 -2.744405,3.17321 -0.269315,0.44066 -0.539957,0.8833 -0.845972,1.29172 -0.132617,0.15245 -0.273091,0.29575 -0.423962,0.42345 -0.05747,0.0341 -0.116097,0.0655 -0.17588,0.094 -0.08886,0.0232 -0.178739,0.0417 -0.269098,0.0551 -0.01915,-0.002 -0.03826,-0.003 -0.05736,-0.004 -0.0036,-0.003 -0.007,-0.006 -0.01051,-0.009 -0.141949,-0.18345 -0.264372,-0.38648 -0.380136,-0.59335 -0.175523,-0.32796 -0.34948,-0.65769 -0.54382,-0.97121 -0.245922,-0.39672 -0.547384,-0.73415 -0.872812,-1.04622 -0.114523,-0.10983 -0.238779,-0.2057 -0.36959,-0.28789 -0.244847,-0.15382 -0.492967,-0.31365 -0.761261,-0.40846 -0.25543,-0.0902 -0.52203,-0.1562 -0.788055,-0.18932 -0.261759,-0.0326 -0.534119,-0.006 -0.793561,0.0144 -0.137471,0.0108 -0.273831,0.037 -0.40792,0.073 -0.261216,0.0702 -0.5190753,0.16528 -0.7699063,0.27447 -0.3952669,0.17206 -0.7518649,0.4369 -1.105232,0.69923 -0.612634,0.45482 -1.126378,1.06698 -1.598179,1.70034 -0.152947,0.20532 -0.296179,0.4203 -0.42854,0.64372 -0.234831,0.39641 -0.333689,0.87278 -0.261578,1.34742 0.0713,0.46915 0.30443,0.89161 0.643453,1.1655 0.692048,0.5591 1.703442,0.37356 2.184908,-0.4392 0.143067,-0.24149 0.2992469,-0.47228 0.4658071,-0.69281 0.270129,-0.31586 0.5634472,-0.60616 0.8810952,-0.85675 0.168724,-0.10975 0.343531,-0.20667 0.524506,-0.28628 0.08979,-0.0244 0.180504,-0.0438 0.27196,-0.0577 0.05295,0.003 0.105794,0.008 0.158448,0.0145 0.04443,0.0164 0.08837,0.0344 0.131759,0.0541 0.05703,0.0427 0.112392,0.0882 0.166089,0.13626 0.188379,0.23412 0.348692,0.49569 0.499205,0.76409 0.172158,0.32263 0.342595,0.64737 0.535399,0.95396 0.07564,0.1203 0.156738,0.23609 0.244923,0.34456 0.17678,0.21739 0.367989,0.42671 0.5772,0.6028 0.209201,0.17609 0.449461,0.3117 0.687955,0.42484 0.05817,0.0276 0.118222,0.0496 0.17897,0.0684 0.194502,0.06 0.393239,0.11139 0.593164,0.14275 0.279031,0.0438 0.572259,0.0134 0.849241,-0.0154 0.178234,-0.0186 0.355517,-0.0604 0.527708,-0.11592 0.230666,-0.0743 0.471956,-0.1525 0.691925,-0.26939 0.222593,-0.11828 0.43224,-0.28355 0.635894,-0.43414 0.20377,-0.15067 0.388289,-0.33401 0.559757,-0.53016 0.47664,-0.54527 0.888685,-1.14329 1.276609,-1.77219 0.355757,-0.57671 0.698793,-1.16897 1.101492,-1.7046 0.142857,-0.16448 0.294456,-0.31884 0.45756,-0.45582 0.06392,-0.0385 0.129207,-0.0738 0.195834,-0.10557 0.04526,-0.0108 0.09078,-0.0199 0.136542,-0.0274 0.06394,0.004 0.127738,0.009 0.191254,0.0185 0.03217,0.0121 0.06398,0.0254 0.09554,0.0393 0.0427,0.0327 0.08428,0.0673 0.124909,0.10332 0.107445,0.1345 0.205208,0.27881 0.295581,0.4292 0.286765,0.5764 0.499982,1.19868 0.709693,1.81595 0.216784,0.63816 0.420246,1.29493 0.727433,1.88506 0.0719,0.13215 0.143792,0.26431 0.215684,0.39647 0.184531,0.25406 0.411987,0.43785 0.682357,0.5513 0.382802,0.15768 0.811708,0.13549 1.181319,-0.0587 0.381829,-0.20064 0.682469,-0.57829 0.824045,-1.03287 0.02864,-0.15239 0.05731,-0.30476 0.08598,-0.45712 0.02137,-0.31398 -0.02431,-0.6145 -0.136998,-0.90153 -0.328462,-0.63099 -0.540293,-1.337 -0.772978,-2.01881 -0.127065,-0.37236 -0.257845,-0.74331 -0.405449,-1.10565 -0.195997,-0.48113 -0.43276,-0.941 -0.694862,-1.37822 -0.249176,-0.41563 -0.57405,-0.78208 -0.920384,-1.08854 -0.222187,-0.19655 -0.487107,-0.34141 -0.736488,-0.47806 z"
       id="path4-1"
       inkscape:connector-curvature="0"
       style="fill:none;fill-opacity:1;stroke:#c800ff;stroke-width:0.5;stroke-miterlimit:4;stroke-dasharray:none;stroke-opacity:1" />
    <path
       d="m 23.279653,282.60876 c -0.25583,-0.14016 -0.535234,-0.18983 -0.810467,-0.25802 -0.380646,-0.0943 -0.790654,-0.0746 -1.172781,-0.0196 -0.119564,0.0173 -0.237499,0.0478 -0.352675,0.0883 -0.237702,0.0835 -0.476257,0.15704 -0.700343,0.28111 -1.20331,0.66615 -1.99767,1.95146 -2.744405,3.17321 -0.269315,0.44066 -0.539957,0.8833 -0.845972,1.29172 -0.132617,0.15245 -0.273091,0.29575 -0.423962,0.42345 -0.05747,0.0341 -0.116097,0.0655 -0.17588,0.094 -0.08886,0.0232 -0.178739,0.0417 -0.269098,0.0551 -0.01915,-0.002 -0.03826,-0.003 -0.05736,-0.004 -0.0036,-0.003 -0.007,-0.006 -0.01051,-0.009 -0.141949,-0.18345 -0.264372,-0.38648 -0.380136,-0.59335 -0.175523,-0.32796 -0.34948,-0.65769 -0.54382,-0.97121 -0.245922,-0.39672 -0.547384,-0.73415 -0.872812,-1.04622 -0.114523,-0.10983 -0.238779,-0.2057 -0.36959,-0.28789 -0.244847,-0.15382 -0.492967,-0.31365 -0.761261,-0.40846 -0.25543,-0.0902 -0.52203,-0.1562 -0.788055,-0.18932 -0.261759,-0.0326 -0.53412,-0.006 -0.793561,0.0144 -0.137471,0.0108 -0.273832,0.037 -0.407921,0.073 -0.261216,0.0702 -0.519075,0.16528 -0.769906,0.27447 -0.3952669,0.17206 -0.7518649,0.4369 -1.105232,0.69923 -0.612634,0.45482 -1.126378,1.06698 -1.598179,1.70034 -0.152947,0.20532 -0.296179,0.4203 -0.42854,0.64372 -0.234831,0.39641 -0.333689,0.87278 -0.261578,1.34742 0.0713,0.46915 0.30443,0.89161 0.643453,1.1655 0.692048,0.5591 1.703442,0.37356 2.184908,-0.4392 0.143067,-0.24149 0.2992469,-0.47228 0.4658071,-0.69281 0.2701289,-0.31586 0.5634469,-0.60616 0.8810959,-0.85675 0.168724,-0.10975 0.34353,-0.20667 0.524505,-0.28628 0.08979,-0.0244 0.180504,-0.0438 0.271961,-0.0577 0.05295,0.003 0.105794,0.008 0.158447,0.0145 0.04443,0.0164 0.08837,0.0344 0.13176,0.0541 0.05703,0.0427 0.112392,0.0882 0.166089,0.13626 0.188379,0.23412 0.348692,0.49569 0.499205,0.76409 0.172158,0.32263 0.342594,0.64737 0.535399,0.95396 0.07564,0.1203 0.156738,0.23609 0.244923,0.34456 0.17678,0.21739 0.367989,0.42671 0.5772,0.6028 0.209201,0.17609 0.449461,0.3117 0.687955,0.42484 0.05817,0.0276 0.118222,0.0496 0.17897,0.0684 0.194502,0.06 0.393239,0.11139 0.593164,0.14275 0.279031,0.0438 0.572259,0.0134 0.849241,-0.0154 0.178233,-0.0186 0.355516,-0.0604 0.527707,-0.11592 0.230666,-0.0743 0.471956,-0.1525 0.691925,-0.26939 0.222593,-0.11828 0.43224,-0.28355 0.635894,-0.43414 0.20377,-0.15067 0.388289,-0.33401 0.559757,-0.53016 0.47664,-0.54527 0.888685,-1.14329 1.276609,-1.77219 0.355757,-0.57671 0.698793,-1.16897 1.101492,-1.7046 0.142857,-0.16448 0.294456,-0.31884 0.45756,-0.45582 0.06392,-0.0385 0.129207,-0.0738 0.195834,-0.10557 0.04526,-0.0108 0.09078,-0.0199 0.136542,-0.0274 0.06394,0.004 0.127738,0.009 0.191254,0.0185 0.03217,0.0121 0.06398,0.0254 0.09554,0.0393 0.0427,0.0327 0.08428,0.0673 0.124909,0.10332 0.107445,0.1345 0.205208,0.27881 0.295581,0.4292 0.286765,0.5764 0.499982,1.19868 0.709693,1.81595 0.216784,0.63816 0.420246,1.29493 0.727433,1.88506 0.0719,0.13215 0.143792,0.26431 0.215684,0.39647 0.184531,0.25406 0.411987,0.43785 0.682357,0.5513 0.382802,0.15768 0.811708,0.13549 1.181319,-0.0587 0.381829,-0.20064 0.682469,-0.57829 0.824045,-1.03287 0.02864,-0.15239 0.05731,-0.30476 0.08598,-0.45712 0.02137,-0.31398 -0.02431,-0.6145 -0.136998,-0.90153 -0.328462,-0.63099 -0.540293,-1.337 -0.772978,-2.01881 -0.127065,-0.37236 -0.257845,-0.74331 -0.405449,-1.10565 -0.195997,-0.48113 -0.43276,-0.941 -0.694862,-1.37822 -0.249176,-0.41563 -0.57405,-0.78208 -0.920384,-1.08854 -0.222187,-0.19655 -0.487107,-0.34141 -0.736488,-0.47806 z"
       id="path4-1-7"
       inkscape:connector-curvature="0"
       style="fill:none;fill-opacity:1;stroke:#c800ff;stroke-width:0.5;stroke-miterlimit:4;stroke-dasharray:none;stroke-opacity:1" />
    <path
       style="fill:#c800ff;fill-opacity:1;stroke:#c800ff;stroke-width:0.5;stroke-miterlimit:4;stroke-dasharray:none;stroke-opacity:1"
       id="path3178"
       d="m 8.6557079,258.85789 c -0.013369,0.26635 -0.00855,0.53326 -0.00656,0.79984 0.00421,0.1975 -0.010313,0.39502 0.025635,0.59001 0.039282,0.16925 0.055589,0.34192 0.065196,0.51499 0.00167,0.16433 0.049207,0.323 0.073091,0.48488 0.023442,0.18639 0.027166,0.37451 0.027063,0.56214 -2.325e-4,0.21717 0.00209,0.43435 -1.061e-4,0.65152 -7.937e-4,0.14852 -1.912e-4,0.29705 2.646e-4,0.44558 0,0 -1.2384635,0.63096 -1.2384635,0.63096 v 0 c 6.086e-4,-0.14876 0.00138,-0.29751 8.996e-4,-0.44627 -0.00175,-0.21643 0.00172,-0.43287 -9.525e-4,-0.6493 -0.00366,-0.18132 -0.00358,-0.36314 -0.023569,-0.54363 -0.021992,-0.16651 -0.072833,-0.32855 -0.077428,-0.49659 -0.00753,-0.16683 -0.019791,-0.33376 -0.057756,-0.49693 -0.040761,-0.20487 -0.031938,-0.41017 -0.028176,-0.61845 0.00196,-0.26434 0.00698,-0.52905 -0.00656,-0.79315 0,0 1.2474282,-0.6356 1.2474282,-0.6356 z"
       inkscape:connector-curvature="0" />
    <path
       style="fill:#c800ff;fill-opacity:1;stroke:#c800ff;stroke-width:0.5;stroke-miterlimit:4;stroke-dasharray:none;stroke-opacity:1"
       id="path3217"
       d="m 13.513177,259.00973 c -0.01028,0.24862 -0.0078,0.49755 -0.0095,0.74633 0.0012,0.26896 0.0012,0.53791 0.0025,0.80687 0.0017,0.231 4.76e-4,0.46199 0.0013,0.693 -0.0035,0.19355 -0.0074,0.38133 0.03773,0.56964 0.0054,0.0264 0.0074,0.0537 0.01622,0.0792 0.01531,0.0443 0.04435,0.0828 0.0608,0.12669 0.02821,0.0752 0.04114,0.15253 0.0536,0.23149 0.02956,0.15701 0.07916,0.30723 0.09885,0.46789 0.01761,0.18222 0.01797,0.36551 0.0189,0.54841 3.18e-4,0.12606 10e-6,0.25212 -2.1e-4,0.37818 0,0 -1.126973,-0.81902 -1.126973,-0.81902 v 0 c 1.12e-4,-0.1257 3.17e-4,-0.2514 -9e-4,-0.3771 -0.0025,-0.17819 -0.0049,-0.35724 -0.03286,-0.53366 -0.02955,-0.1556 -0.08159,-0.30549 -0.103359,-0.46273 -0.03823,-0.14814 -0.109218,-0.28537 -0.129287,-0.43831 -0.02946,-0.19437 -0.01343,-0.39102 -0.01608,-0.58696 8.2e-4,-0.23038 -3.7e-4,-0.46075 0.0013,-0.69113 0.0014,-0.26773 0.0013,-0.53547 0.0025,-0.80321 -0.0017,-0.25339 6.09e-4,-0.50692 -0.0095,-0.76017 0,0 1.134986,0.82462 1.134986,0.82462 z"
       inkscape:connector-curvature="0" />
    <path
       style="fill:#c800ff;fill-opacity:1;stroke:#c800ff;stroke-width:0.51396972;stroke-miterlimit:4;stroke-dasharray:none;stroke-opacity:1"
       id="path3223"
       d="m 24.927513,258.34462 c -0.05861,0.35601 -0.06832,0.71863 -0.07934,1.07906 -0.0066,0.2989 -0.0041,0.5979 -0.0021,0.89683 0.0074,0.20897 -0.01219,0.41959 0.01673,0.62684 0.07187,0.21821 0.12314,0.44143 0.152337,0.67021 0.02189,0.20568 0.02278,0.4129 0.02373,0.61959 1.86e-4,0.19978 -5.55e-4,0.39953 -9.26e-4,0.59931 -3.17e-4,0.19959 -3.7e-4,0.39918 -4.23e-4,0.59878 -2.4e-5,0.19967 -1.6e-5,0.39937 -1.2e-5,0.59906 2e-6,0.13312 3e-6,0.26626 4e-6,0.39939 0,0 -1.127108,-0.86529 -1.127108,-0.86529 v 0 c -1e-6,-0.13313 -3e-6,-0.26626 -5e-6,-0.39939 -2e-6,-0.1997 -10e-6,-0.39941 3.3e-5,-0.5991 6e-5,-0.19967 1.56e-4,-0.39933 5.55e-4,-0.599 3.97e-4,-0.19933 0.0013,-0.39868 1.31e-4,-0.59802 -0.0023,-0.2008 -0.0054,-0.40231 -0.03384,-0.60129 -0.03717,-0.22845 -0.105509,-0.44782 -0.147925,-0.67487 -0.01478,-0.21266 -0.0063,-0.42596 -0.0067,-0.63907 0.0031,-0.2963 0.0096,-0.59253 0.0204,-0.88864 0.0131,-0.37167 0.03467,-0.74293 0.06578,-1.11343 0,0 1.118705,0.88903 1.118705,0.88903 z"
       inkscape:connector-curvature="0" />
    <path
       style="fill:#c800ff;fill-opacity:1;stroke:#c800ff;stroke-width:0.52460498;stroke-miterlimit:4;stroke-dasharray:none;stroke-opacity:1"
       id="path3229"
       d="m 19.170681,256.87061 c -0.01075,0.41775 -0.01362,0.83469 -0.03751,1.25183 -0.02179,0.33352 -0.04093,0.66723 -0.0511,1.00154 -0.0059,0.22108 -0.0061,0.44229 -0.0062,0.66346 7.4e-5,0.21329 3.07e-4,0.42657 4.36e-4,0.63985 1.08e-4,0.21454 1.19e-4,0.42907 1.3e-4,0.64359 6e-6,0.21474 2e-6,0.42946 1e-6,0.64419 -1e-6,0.10737 -1e-6,0.21473 -1e-6,0.32209 0,0 -1.092074,0.93039 -1.092074,0.93039 v 0 c 0,-0.10737 1e-6,-0.21472 2e-6,-0.32209 1e-6,-0.21472 5e-6,-0.42945 0,-0.64418 -8e-6,-0.21448 -1.9e-5,-0.42896 -1.4e-4,-0.64345 -1.41e-4,-0.21332 -4.1e-4,-0.42664 -5.89e-4,-0.63995 3e-5,-0.22395 -1.16e-4,-0.44796 0.007,-0.6718 0.0129,-0.34165 0.03947,-0.68209 0.06803,-1.02239 0.02832,-0.40568 0.03691,-0.81146 0.01464,-1.21812 0,0 1.097435,-0.93496 1.097435,-0.93496 z"
       inkscape:connector-curvature="0" />
    <path
       style="fill:#c800ff;fill-opacity:1;stroke:#c800ff;stroke-width:0.45663786;stroke-miterlimit:4;stroke-dasharray:none;stroke-opacity:1"
       id="path3233"
       d="m 18.470872,271.14704 c -0.0323,0.68479 0.02283,1.36852 0.08275,2.0479 0.05483,0.55355 0.100289,1.11214 0.205291,1.65426 0.04138,0.25574 0.128709,0.49115 0.189249,0.7386 0.02849,0.12363 0.03824,0.25186 0.04614,0.37987 0,0 -0.898363,0.86204 -0.898363,0.86204 v 0 c -0.0046,-0.11899 -0.0097,-0.23847 -0.03087,-0.35486 -0.0523,-0.25577 -0.139352,-0.49765 -0.175436,-0.75985 -0.105137,-0.55591 -0.127859,-1.13274 -0.182933,-1.69932 -0.05725,-0.67022 -0.111182,-1.34078 -0.138371,-2.01441 0,0 0.902545,-0.85423 0.902545,-0.85423 z"
       inkscape:connector-curvature="0" />
    <path
       style="fill:#c800ff;fill-opacity:1;stroke:#c800ff;stroke-width:0.51709545;stroke-miterlimit:4;stroke-dasharray:none;stroke-opacity:1"
       id="path3235"
       d="m 20.033267,283.33754 c -0.01313,0.3306 -0.01339,0.66171 -0.01238,0.99257 0.0025,0.32095 0.0021,0.64191 0.0043,0.96287 0.0019,0.23259 0.0032,0.46517 0.0038,0.69776 0.0013,0.2183 -0.0012,0.43658 -0.0012,0.65488 3.71e-4,0.21866 9.79e-4,0.43732 0.0013,0.65598 2.62e-4,0.20335 2.91e-4,0.4067 3.17e-4,0.61004 2e-6,0.0337 3e-6,0.0673 5e-6,0.10096 0,0 -1.127129,0.87587 -1.127129,0.87587 v 0 c 2e-6,-0.0337 3e-6,-0.0673 5e-6,-0.10097 2e-5,-0.2035 4.6e-5,-0.407 3.17e-4,-0.61051 3.18e-4,-0.21934 9.53e-4,-0.43867 0.0013,-0.658 -5e-5,-0.21767 -0.0026,-0.43531 -0.0012,-0.65298 6.09e-4,-0.23455 0.0019,-0.46909 0.0038,-0.70362 0.0021,-0.32319 0.0018,-0.64637 0.0043,-0.96955 9.79e-4,-0.32443 0.0011,-0.64915 -0.01238,-0.97332 0,0 1.134985,-0.88197 1.134985,-0.88197 z"
       inkscape:connector-curvature="0" />
    <path
       style="fill:#c800ff;fill-opacity:1;stroke:#c800ff;stroke-width:0.5;stroke-miterlimit:4;stroke-dasharray:none;stroke-opacity:1"
       id="path3237"
       d="m 9.6389213,285.21041 c -0.012565,0.28133 -0.011234,0.56305 -0.00938,0.84459 0.00212,0.22967 0.00392,0.45934 0.00484,0.68901 2.911e-4,0.19436 0.00161,0.38872 -5.291e-4,0.58306 -0.00108,0.2125 -4.82e-5,0.42501 4.762e-4,0.63751 4.498e-4,0.19252 5.821e-4,0.38505 6.35e-4,0.57758 -0.00273,0.21485 -0.00146,0.42972 -8.996e-4,0.64457 8.23e-5,0.0336 1.646e-4,0.0672 2.469e-4,0.10074 0,0 -1.1257743,0.81793 -1.1257743,0.81793 v 0 c 8.23e-5,-0.0337 1.646e-4,-0.0674 2.468e-4,-0.1011 5.821e-4,-0.21443 0.00185,-0.42887 -8.995e-4,-0.64328 6.82e-5,-0.19284 1.809e-4,-0.38568 6.35e-4,-0.57851 5.027e-4,-0.21273 0.00153,-0.42546 4.762e-4,-0.63818 -0.00217,-0.1941 -7.937e-4,-0.38821 -5.292e-4,-0.58231 9.261e-4,-0.23202 0.00273,-0.46403 0.00484,-0.69604 0.0018,-0.27699 0.0035,-0.55419 -0.00938,-0.83095 0,0 1.1349857,-0.82462 1.1349857,-0.82462 z"
       inkscape:connector-curvature="0" />
    <path
       style="fill:#c800ff;fill-opacity:1;stroke:#c800ff;stroke-width:0.5;stroke-miterlimit:4;stroke-dasharray:none;stroke-opacity:1"
       id="path3239"
       d="m 9.3554393,272.17023 c -0.019122,0.43361 -0.021931,0.86788 -0.024847,1.30185 -8.467e-4,0.48562 0.00712,0.97117 0.00977,1.45677 0.00275,0.28185 0.00718,0.56367 0.00955,0.84552 8.467e-4,0.1458 -2.91e-4,0.2916 -1.188e-4,0.43741 0,0 -1.1236983,0.81641 -1.1236983,0.81641 v 0 c 1.791e-4,-0.14575 -9.79e-4,-0.29149 -1.186e-4,-0.43724 0.00238,-0.28647 0.00679,-0.57292 0.00955,-0.85939 0.00266,-0.49033 0.010591,-0.98062 0.00977,-1.47097 -0.00286,-0.42193 -0.00529,-0.84421 -0.024847,-1.26574 0,0 1.1349857,-0.82462 1.1349857,-0.82462 z"
       inkscape:connector-curvature="0" />
    <path
       style="fill:#c800ff;fill-opacity:1;stroke:#c800ff;stroke-width:0.5;stroke-miterlimit:4;stroke-dasharray:none;stroke-opacity:1"
       id="path3241"
       d="m 13.682722,272.63655 c -0.06664,0.33071 -0.11648,0.66353 -0.149154,0.9993 -0.0226,0.26898 -0.02657,0.53904 -0.02813,0.80881 0.0011,0.22308 0.0012,0.44615 0.0012,0.66923 6.08e-4,0.21132 0.0016,0.42264 0.0021,0.63396 3.96e-4,0.19106 4.49e-4,0.38212 4.76e-4,0.57319 1.5e-5,0.18877 3e-6,0.37754 -3e-6,0.56631 -1e-6,0.0315 -1e-6,0.063 -2e-6,0.0944 0,0 -1.127118,-0.8189 -1.127118,-0.8189 v 0 c 0,-0.0315 -1e-6,-0.063 -1e-6,-0.0944 -4e-6,-0.18876 -1.1e-5,-0.37753 10e-6,-0.5663 3.5e-5,-0.19083 8.8e-5,-0.38166 3.97e-4,-0.57249 3.71e-4,-0.2105 0.0011,-0.42099 9.79e-4,-0.63149 -7.94e-4,-0.22313 -0.0024,-0.44626 0.0015,-0.66938 0.0043,-0.27114 0.01467,-0.54216 0.04608,-0.81177 0.03878,-0.34141 0.103422,-0.67943 0.132921,-1.02182 0,0 1.118705,0.84136 1.118705,0.84136 z"
       inkscape:connector-curvature="0" />
    <path
       style="fill:#c800ff;fill-opacity:1;stroke:#c800ff;stroke-width:0.40590662;stroke-miterlimit:4;stroke-dasharray:none;stroke-opacity:1"
       id="path3243"
       d="m 23.527118,270.53615 c -0.01074,0.42201 -0.01691,0.8452 -0.0021,1.26698 0.03024,0.40842 0.0775,0.81509 0.144765,1.21042 0.06749,0.28352 0.108427,0.5795 0.132807,0.88204 0.01248,0.34115 0.01088,0.68338 0.013,1.02509 -4.43e-4,0.28082 0.0021,0.56164 0.0011,0.84245 -1.96e-4,0.23459 5.63e-4,0.46916 9.38e-4,0.70373 0.01067,0.2119 -0.01003,0.41585 -0.03045,0.62342 -0.01345,0.18194 -0.02941,0.36705 -0.06824,0.53905 -0.218747,0.43211 -0.03586,0.10156 -0.715858,-0.93632 -9.38e-4,-9.1e-4 -0.0021,-0.13187 -0.0024,-0.16214 0,0 0.703595,0.86652 0.703595,0.86652 v 0 c 0.0017,0.0263 0.0026,0.0527 0.0051,0.0787 0.0021,0.0221 0.01942,0.0781 0.0088,0.0655 -0.691195,-0.82906 -0.56816,-1.31288 -0.682827,-0.83909 0.04322,-0.15611 0.04391,-0.33598 0.06245,-0.50299 0.01949,-0.20024 0.02823,-0.3994 0.02258,-0.60276 4.57e-4,-0.23363 0.0013,-0.46724 0.0016,-0.70087 -2.78e-4,-0.27882 0.0036,-0.55759 0.0029,-0.83641 8.04e-4,-0.33785 0.0022,-0.67731 -0.02419,-1.01278 -0.02742,-0.29573 -0.07746,-0.5797 -0.133575,-0.86287 -0.05623,-0.40318 -0.106229,-0.81055 -0.125487,-1.22451 -0.0098,-0.43271 -0.0024,-0.86601 -0.01611,-1.29859 0,0 0.701573,0.87557 0.701573,0.87557 z"
       inkscape:connector-curvature="0" />
    <path
       style="fill:#c800ff;fill-opacity:1;stroke:#c800ff;stroke-width:0.50920123;stroke-miterlimit:4;stroke-dasharray:none;stroke-opacity:1"
       id="path3245"
       d="m 24.946957,284.08128 c -0.02444,0.52521 -0.02917,1.05116 -0.03622,1.57686 -0.0074,0.71939 0.0043,1.43878 0.01719,2.15802 0.0081,0.31301 0.01034,0.62609 0.01249,0.93918 0.0016,0.21286 0.0022,0.42571 0.0025,0.63855 2.06e-4,0.19576 1.76e-4,0.39151 1.67e-4,0.58727 -1.4e-5,0.19573 -2.3e-5,0.39146 -2.8e-5,0.58718 -10e-7,0.0327 -10e-7,0.0653 -2e-6,0.098 0,0 -1.127112,-0.8493 -1.127112,-0.8493 v 0 c 0,-0.0327 -1e-6,-0.0653 -1e-6,-0.098 -5e-6,-0.19575 -1.5e-5,-0.39149 -2.9e-5,-0.58723 -8e-6,-0.19568 -3.9e-5,-0.39135 1.67e-4,-0.58702 3.18e-4,-0.21161 9e-4,-0.42322 0.0025,-0.63483 0.0021,-0.30682 0.0042,-0.61363 0.01249,-0.92036 0.01311,-0.7106 0.02459,-1.42137 0.01718,-2.13212 -0.0071,-0.54389 -0.0123,-1.08801 -0.03622,-1.63144 0,0 1.134986,0.85524 1.134986,0.85524 z"
       inkscape:connector-curvature="0" />
    <path
       style="fill:#c800ff;fill-opacity:1;stroke:#c800ff;stroke-width:0.5;stroke-miterlimit:4;stroke-dasharray:none;stroke-opacity:1"
       id="path3247"
       d="m 14.173463,285.85649 c -0.01758,0.35995 -0.01612,0.72044 -0.01293,1.08068 5e-5,0.29927 0.0072,0.59849 0.0069,0.89775 5.56e-4,0.2226 0.0019,0.4452 0.0026,0.6678 5.55e-4,0.19182 6.08e-4,0.38364 6.61e-4,0.57545 2.4e-5,0.18865 8e-6,0.37729 1e-6,0.56593 -0.0015,0.21146 -0.0017,0.42291 -0.0012,0.63437 0,0 -1.124711,-0.81715 -1.124711,-0.81715 v 0 c 5.29e-4,-0.21205 3.18e-4,-0.42409 -0.0012,-0.63613 -7e-6,-0.18864 -2.4e-5,-0.37728 1e-6,-0.56592 4.6e-5,-0.1915 1.09e-4,-0.383 6.61e-4,-0.5745 7.15e-4,-0.22134 0.0021,-0.44267 0.0026,-0.664 -3.44e-4,-0.29592 0.0068,-0.59179 0.0069,-0.88772 0.0033,-0.36652 0.0042,-0.73324 -0.01293,-1.09947 0,0 1.132641,0.82291 1.132641,0.82291 z"
       inkscape:connector-curvature="0" />
  </g>
</svg>
