<svg id="Layer_1" data-name="Layer 1" xmlns="http://www.w3.org/2000/svg" xmlns:xlink="http://www.w3.org/1999/xlink" viewBox="0 0 50 70"><defs><style>.cls-1{fill:none;}.cls-2{fill:#fff;}.cls-3{fill:#7f3f98;}.cls-4{stroke:#7f3f98;stroke-miterlimit:10;stroke-width:0.49px;fill:url(#Green_Lines);}</style><pattern id="Green_Lines" data-name="Green Lines" width="16" height="41.05" patternUnits="userSpaceOnUse" viewBox="0 0 16 41.05"><rect class="cls-1" width="16" height="41.05"/><rect class="cls-2" x="15.41" width="0.95" height="41.05"/><rect class="cls-2" x="13.41" width="0.95" height="41.05"/><rect class="cls-3" x="14.36" width="0.24" height="41.05"/><rect class="cls-2" x="11.41" width="0.95" height="41.05"/><rect class="cls-3" x="12.36" width="0.24" height="41.05"/><rect class="cls-2" x="9.41" width="0.95" height="41.05"/><rect class="cls-3" x="10.36" width="0.24" height="41.05"/><rect class="cls-2" x="7.41" width="0.95" height="41.05"/><rect class="cls-3" x="8.36" width="0.24" height="41.05"/><rect class="cls-2" x="5.41" width="0.95" height="41.05"/><rect class="cls-3" x="6.36" width="0.24" height="41.05"/><rect class="cls-2" x="3.41" width="0.95" height="41.05"/><rect class="cls-3" x="4.36" width="0.24" height="41.05"/><rect class="cls-2" x="1.41" width="0.95" height="41.05"/><rect class="cls-3" x="2.36" width="0.24" height="41.05"/><rect class="cls-2" x="-0.59" width="0.95" height="41.05"/><rect class="cls-3" x="0.36" width="0.24" height="41.05"/></pattern></defs><rect class="cls-4" x="10.85" y="37.05" width="28.29" height="13.89" rx="6.95"/><rect class="cls-4" x="10.85" y="19.05" width="28.29" height="13.89" rx="6.95"/></svg>