<svg id="Layer_1" data-name="Layer 1" xmlns="http://www.w3.org/2000/svg" xmlns:xlink="http://www.w3.org/1999/xlink" viewBox="0 0 50 70"><defs><style>.cls-1{fill:none;}.cls-2{fill:#fff;}.cls-3{fill:#7f3f98;}.cls-4{stroke:#7f3f98;stroke-miterlimit:10;stroke-width:0.49px;fill:url(#Purple_Lines);}</style><pattern id="Purple_Lines" data-name="Purple Lines" width="4" height="41.05" patternUnits="userSpaceOnUse" viewBox="0 0 4 41.05"><rect class="cls-1" width="4" height="41.05"/><rect class="cls-2" x="3.41" width="0.95" height="41.05"/><rect class="cls-2" x="1.41" width="0.95" height="41.05"/><rect class="cls-3" x="2.36" width="0.24" height="41.05"/><rect class="cls-2" x="-0.59" width="0.95" height="41.05"/><rect class="cls-3" x="0.36" width="0.24" height="41.05"/></pattern></defs><path class="cls-4" d="M27.08,39.22c-4.15-1-4.53-2.92-10.45.43-3.33,1.89-4.86-1.11-4.86-4.12h0c0-4.13,5.1-8.27,9.12-6.79,5.59,2.06,8.33,3.51,14.41-.44,2.67-1.72,4,1.95,3.27,4.79-.1.42-.16.63-.25,1C37.35,38.77,30.26,40,27.08,39.22Z"/></svg>