<?xml version="1.0" encoding="UTF-8" standalone="no"?>
<!-- Created with Inkscape (http://www.inkscape.org/) -->

<svg
   xmlns:osb="http://www.openswatchbook.org/uri/2009/osb"
   xmlns:dc="http://purl.org/dc/elements/1.1/"
   xmlns:cc="http://creativecommons.org/ns#"
   xmlns:rdf="http://www.w3.org/1999/02/22-rdf-syntax-ns#"
   xmlns:svg="http://www.w3.org/2000/svg"
   xmlns="http://www.w3.org/2000/svg"
   xmlns:sodipodi="http://sodipodi.sourceforge.net/DTD/sodipodi-0.dtd"
   xmlns:inkscape="http://www.inkscape.org/namespaces/inkscape"
   width="125"
   height="175"
   viewBox="0 0 33.072916 46.302085"
   version="1.1"
   id="svg8"
   inkscape:version="0.92.5 (2060ec1f9f, 2020-04-08)"
   sodipodi:docname="green-2-squiggly-striped.svg">
  <defs
     id="defs2">
    <linearGradient
       id="linearGradient841"
       osb:paint="solid">
      <stop
         style="stop-color:#a100ff;stop-opacity:1;"
         offset="0"
         id="stop839" />
    </linearGradient>
  </defs>
  <sodipodi:namedview
     id="base"
     pagecolor="#ffffff"
     bordercolor="#666666"
     borderopacity="1.0"
     inkscape:pageopacity="0.0"
     inkscape:pageshadow="2"
     inkscape:zoom="2.8"
     inkscape:cx="-15.943308"
     inkscape:cy="91.996365"
     inkscape:document-units="mm"
     inkscape:current-layer="layer1"
     showgrid="false"
     units="px"
     inkscape:snap-midpoints="true"
     inkscape:window-width="1366"
     inkscape:window-height="705"
     inkscape:window-x="-8"
     inkscape:window-y="-8"
     inkscape:window-maximized="1"
     inkscape:snap-nodes="false" />
  <metadata
     id="metadata5">
    <rdf:RDF>
      <cc:Work
         rdf:about="">
        <dc:format>image/svg+xml</dc:format>
        <dc:type
           rdf:resource="http://purl.org/dc/dcmitype/StillImage" />
        <dc:title></dc:title>
      </cc:Work>
    </rdf:RDF>
  </metadata>
  <g
     inkscape:label="Layer 1"
     inkscape:groupmode="layer"
     id="layer1"
     transform="translate(0,-250.6979)">
    <path
       d="m 22.684985,262.39304 c -0.25583,-0.14016 -0.535234,-0.18983 -0.810467,-0.25802 -0.380646,-0.0943 -0.790654,-0.0746 -1.172781,-0.0196 -0.119564,0.0173 -0.237499,0.0478 -0.352675,0.0883 -0.237702,0.0835 -0.476257,0.15704 -0.700343,0.28111 -1.20331,0.66615 -1.99767,1.95146 -2.744405,3.17321 -0.269315,0.44066 -0.539957,0.8833 -0.845972,1.29172 -0.132617,0.15245 -0.273091,0.29575 -0.423963,0.42345 -0.05747,0.0341 -0.116097,0.0655 -0.17588,0.094 -0.08886,0.0232 -0.178739,0.0417 -0.269098,0.0551 -0.01915,-0.002 -0.03826,-0.003 -0.05736,-0.004 -0.0036,-0.003 -0.007,-0.006 -0.01051,-0.009 -0.141949,-0.18345 -0.264372,-0.38648 -0.380136,-0.59335 -0.175523,-0.32796 -0.349479,-0.65769 -0.54382,-0.97121 -0.245922,-0.39672 -0.547384,-0.73415 -0.872812,-1.04622 -0.114523,-0.10983 -0.238779,-0.2057 -0.36959,-0.28789 -0.244847,-0.15382 -0.492967,-0.31365 -0.761261,-0.40846 -0.25543,-0.0902 -0.52203,-0.1562 -0.788055,-0.18932 -0.261759,-0.0326 -0.534119,-0.006 -0.793561,0.0144 -0.137471,0.0108 -0.273831,0.037 -0.407919,0.073 -0.2612158,0.0702 -0.5190748,0.16528 -0.7699058,0.27447 -0.395267,0.17206 -0.751865,0.4369 -1.105232,0.69923 -0.612634,0.45482 -1.126378,1.06698 -1.598179,1.70034 -0.152947,0.20532 -0.296179,0.4203 -0.42854,0.64372 -0.234831,0.39641 -0.333689,0.87278 -0.261578,1.34742 0.0713,0.46915 0.30443,0.89161 0.643453,1.1655 0.692048,0.5591 1.703442,0.37356 2.184908,-0.4392 0.143067,-0.24149 0.299246,-0.47228 0.465807,-0.69281 0.270129,-0.31586 0.563447,-0.60616 0.8810938,-0.85675 0.168724,-0.10975 0.343531,-0.20667 0.524506,-0.28628 0.08979,-0.0244 0.180504,-0.0438 0.27196,-0.0577 0.05295,0.003 0.105794,0.008 0.158449,0.0145 0.04443,0.0164 0.08837,0.0344 0.131758,0.0541 0.05703,0.0427 0.112392,0.0882 0.166089,0.13626 0.188379,0.23412 0.348692,0.49569 0.499205,0.76409 0.172158,0.32263 0.342596,0.64737 0.535399,0.95396 0.07564,0.1203 0.156738,0.23609 0.244923,0.34456 0.17678,0.21739 0.367989,0.42671 0.5772,0.6028 0.209201,0.17609 0.449461,0.3117 0.687955,0.42484 0.05817,0.0276 0.118222,0.0496 0.17897,0.0684 0.194502,0.06 0.393239,0.11139 0.593164,0.14275 0.279031,0.0438 0.57226,0.0134 0.849242,-0.0154 0.178234,-0.0186 0.355517,-0.0604 0.527708,-0.11592 0.230666,-0.0743 0.471956,-0.1525 0.691925,-0.26939 0.222593,-0.11828 0.43224,-0.28355 0.635894,-0.43414 0.20377,-0.15067 0.388289,-0.33401 0.559757,-0.53016 0.47664,-0.54527 0.888685,-1.14329 1.276609,-1.77219 0.355757,-0.57671 0.698793,-1.16897 1.101492,-1.7046 0.142857,-0.16448 0.294456,-0.31884 0.45756,-0.45582 0.06392,-0.0385 0.129207,-0.0738 0.195834,-0.10557 0.04526,-0.0108 0.09078,-0.0199 0.136542,-0.0274 0.06394,0.004 0.127738,0.009 0.191254,0.0185 0.03217,0.0121 0.06398,0.0254 0.09554,0.0393 0.0427,0.0327 0.08428,0.0673 0.124909,0.10332 0.107445,0.1345 0.205208,0.27881 0.295581,0.4292 0.286765,0.5764 0.499982,1.19868 0.709693,1.81595 0.216784,0.63816 0.420246,1.29493 0.727433,1.88506 0.0719,0.13215 0.143792,0.26431 0.215684,0.39647 0.184531,0.25406 0.411987,0.43785 0.682357,0.5513 0.382802,0.15768 0.811708,0.13549 1.181319,-0.0587 0.381829,-0.20064 0.682469,-0.57829 0.824045,-1.03287 0.02864,-0.15239 0.05731,-0.30476 0.08598,-0.45712 0.02137,-0.31398 -0.02431,-0.6145 -0.136998,-0.90153 -0.328462,-0.63099 -0.540293,-1.337 -0.772978,-2.01881 -0.127065,-0.37236 -0.257845,-0.74331 -0.405449,-1.10565 -0.195997,-0.48113 -0.43276,-0.941 -0.694862,-1.37822 -0.249176,-0.41563 -0.57405,-0.78208 -0.920384,-1.08854 -0.222187,-0.19655 -0.487107,-0.34141 -0.736488,-0.47806 z"
       id="path4-8"
       inkscape:connector-curvature="0"
       style="fill:none;fill-opacity:1;stroke:#00be00;stroke-width:0.5;stroke-miterlimit:4;stroke-dasharray:none;stroke-opacity:1" />
    <path
       d="m 22.821529,276.12406 c -0.25583,-0.14016 -0.535234,-0.18983 -0.810467,-0.25802 -0.380646,-0.0943 -0.790654,-0.0746 -1.172781,-0.0196 -0.119564,0.0173 -0.237499,0.0478 -0.352675,0.0883 -0.237702,0.0835 -0.476257,0.15704 -0.700343,0.28111 -1.20331,0.66615 -1.99767,1.95146 -2.744405,3.17321 -0.269315,0.44066 -0.539957,0.8833 -0.845972,1.29172 -0.132617,0.15245 -0.273091,0.29575 -0.423962,0.42345 -0.05747,0.0341 -0.116098,0.0655 -0.175881,0.094 -0.08886,0.0232 -0.178739,0.0417 -0.269098,0.0551 -0.01915,-0.002 -0.03826,-0.003 -0.05736,-0.004 -0.0036,-0.003 -0.007,-0.006 -0.01051,-0.009 -0.141949,-0.18345 -0.264372,-0.38648 -0.380136,-0.59335 -0.175523,-0.32796 -0.34948,-0.65769 -0.54382,-0.97121 -0.245922,-0.39672 -0.547384,-0.73415 -0.872812,-1.04622 -0.114523,-0.10983 -0.238779,-0.2057 -0.36959,-0.28789 -0.244847,-0.15382 -0.492967,-0.31365 -0.761261,-0.40846 -0.25543,-0.0902 -0.52203,-0.1562 -0.788055,-0.18932 -0.261759,-0.0326 -0.534119,-0.006 -0.793561,0.0144 -0.137471,0.0108 -0.273831,0.037 -0.40792,0.073 -0.261216,0.0702 -0.5190748,0.16528 -0.7699058,0.27447 -0.395267,0.17206 -0.751865,0.4369 -1.105232,0.69923 -0.612634,0.45482 -1.126378,1.06698 -1.598179,1.70034 -0.152947,0.20532 -0.296179,0.4203 -0.42854,0.64372 -0.234831,0.39641 -0.333689,0.87278 -0.261578,1.34742 0.0713,0.46915 0.30443,0.89161 0.643453,1.1655 0.692048,0.5591 1.703442,0.37356 2.184908,-0.4392 0.143067,-0.24149 0.299247,-0.47228 0.465807,-0.69281 0.270129,-0.31586 0.5634468,-0.60616 0.8810948,-0.85675 0.168724,-0.10975 0.343531,-0.20667 0.524506,-0.28628 0.08979,-0.0244 0.180504,-0.0438 0.27196,-0.0577 0.05295,0.003 0.105794,0.008 0.158448,0.0145 0.04443,0.0164 0.08837,0.0344 0.131759,0.0541 0.05703,0.0427 0.112392,0.0882 0.166089,0.13626 0.188379,0.23412 0.348692,0.49569 0.499205,0.76409 0.172158,0.32263 0.342595,0.64737 0.535399,0.95396 0.07564,0.1203 0.156738,0.23609 0.244923,0.34456 0.17678,0.21739 0.367989,0.42671 0.5772,0.6028 0.209201,0.17609 0.449461,0.3117 0.687955,0.42484 0.05817,0.0276 0.118222,0.0496 0.17897,0.0684 0.194502,0.06 0.393239,0.11139 0.593164,0.14275 0.279031,0.0438 0.572259,0.0134 0.849241,-0.0154 0.178234,-0.0186 0.355517,-0.0604 0.527708,-0.11592 0.230666,-0.0743 0.471956,-0.1525 0.691925,-0.26939 0.222593,-0.11828 0.43224,-0.28355 0.635894,-0.43414 0.20377,-0.15067 0.388289,-0.33401 0.559757,-0.53016 0.47664,-0.54527 0.888685,-1.14329 1.276609,-1.77219 0.355757,-0.57671 0.698793,-1.16897 1.101492,-1.7046 0.142857,-0.16448 0.294456,-0.31884 0.45756,-0.45582 0.06392,-0.0385 0.129207,-0.0738 0.195834,-0.10557 0.04526,-0.0108 0.09078,-0.0199 0.136542,-0.0274 0.06394,0.004 0.127738,0.009 0.191254,0.0185 0.03217,0.0121 0.06398,0.0254 0.09554,0.0393 0.0427,0.0327 0.08428,0.0673 0.124909,0.10332 0.107445,0.1345 0.205208,0.27881 0.295581,0.4292 0.286765,0.5764 0.499982,1.19868 0.709693,1.81595 0.216784,0.63816 0.420246,1.29493 0.727433,1.88506 0.0719,0.13215 0.143792,0.26431 0.215684,0.39647 0.184531,0.25406 0.411987,0.43785 0.682357,0.5513 0.382802,0.15768 0.811708,0.13549 1.181319,-0.0587 0.381829,-0.20064 0.682469,-0.57829 0.824045,-1.03287 0.02864,-0.15239 0.05731,-0.30476 0.08598,-0.45712 0.02137,-0.31398 -0.02431,-0.6145 -0.136998,-0.90153 -0.328462,-0.63099 -0.540293,-1.337 -0.772978,-2.01881 -0.127065,-0.37236 -0.257845,-0.74331 -0.405449,-1.10565 -0.195997,-0.48113 -0.43276,-0.941 -0.694862,-1.37822 -0.249176,-0.41563 -0.57405,-0.78208 -0.920384,-1.08854 -0.222187,-0.19655 -0.487107,-0.34141 -0.736488,-0.47806 z"
       id="path4-1-8"
       inkscape:connector-curvature="0"
       style="fill:none;fill-opacity:1;stroke:#00be00;stroke-width:0.5;stroke-miterlimit:4;stroke-dasharray:none;stroke-opacity:1" />
    <path
       style="fill:#00be00;fill-opacity:1;stroke:#00be00;stroke-width:0.5;stroke-miterlimit:4;stroke-dasharray:none;stroke-opacity:1"
       id="path3178-2"
       d="m 8.6517522,265.32125 c -0.01337,0.26635 -0.0085,0.53326 -0.0066,0.79984 0.0042,0.1975 -0.01031,0.39502 0.02564,0.59001 0.03928,0.16925 0.05559,0.34192 0.0652,0.51499 0.0017,0.16433 0.04921,0.323 0.07309,0.48488 0.02344,0.18639 0.02717,0.37451 0.02706,0.56214 -2.32e-4,0.21717 0.0021,0.43435 -1.06e-4,0.65152 -7.94e-4,0.14852 -1.91e-4,0.29705 2.65e-4,0.44558 0,0 -1.238464,0.63096 -1.238464,0.63096 v 0 c 6.09e-4,-0.14876 0.0014,-0.29751 9e-4,-0.44627 -0.0017,-0.21643 0.0017,-0.43287 -9.53e-4,-0.6493 -0.0037,-0.18132 -0.0036,-0.36314 -0.02357,-0.54363 -0.02199,-0.16651 -0.07283,-0.32855 -0.07743,-0.49659 -0.0075,-0.16683 -0.01979,-0.33376 -0.05776,-0.49693 -0.04076,-0.20487 -0.03194,-0.41017 -0.02818,-0.61845 0.002,-0.26434 0.007,-0.52905 -0.0066,-0.79315 0,0 1.247429,-0.6356 1.247429,-0.6356 z"
       inkscape:connector-curvature="0" />
    <path
       style="fill:#00be00;fill-opacity:1;stroke:#00be00;stroke-width:0.5;stroke-miterlimit:4;stroke-dasharray:none;stroke-opacity:1"
       id="path3217-0"
       d="m 13.509221,265.47309 c -0.01028,0.24862 -0.0078,0.49755 -0.0095,0.74633 0.0012,0.26896 0.0012,0.53791 0.0025,0.80687 0.0017,0.231 4.77e-4,0.46199 0.0013,0.693 -0.0035,0.19355 -0.0074,0.38133 0.03773,0.56964 0.0054,0.0264 0.0074,0.0537 0.01622,0.0792 0.01531,0.0443 0.04435,0.0828 0.0608,0.12669 0.02821,0.0752 0.04114,0.15253 0.0536,0.23149 0.02956,0.15701 0.07916,0.30723 0.09885,0.46789 0.01761,0.18222 0.01797,0.36551 0.0189,0.54841 3.18e-4,0.12606 1.1e-5,0.25212 -2.1e-4,0.37818 0,0 -1.126972,-0.81902 -1.126972,-0.81902 v 0 c 1.11e-4,-0.1257 3.17e-4,-0.2514 -9e-4,-0.3771 -0.0025,-0.17819 -0.0049,-0.35724 -0.03286,-0.53366 -0.02955,-0.1556 -0.08159,-0.30549 -0.103359,-0.46273 -0.03823,-0.14814 -0.109218,-0.28537 -0.129287,-0.43831 -0.02946,-0.19437 -0.01343,-0.39102 -0.01608,-0.58696 8.2e-4,-0.23038 -3.7e-4,-0.46075 0.0013,-0.69113 0.0014,-0.26773 0.0013,-0.53547 0.0025,-0.80321 -0.0017,-0.25339 6.08e-4,-0.50692 -0.0095,-0.76017 0,0 1.134986,0.82462 1.134986,0.82462 z"
       inkscape:connector-curvature="0" />
    <path
       style="fill:#00be00;fill-opacity:1;stroke:#00be00;stroke-width:0.51396972;stroke-miterlimit:4;stroke-dasharray:none;stroke-opacity:1"
       id="path3223-5"
       d="m 24.923558,264.80798 c -0.05861,0.35601 -0.06832,0.71863 -0.07934,1.07906 -0.0066,0.2989 -0.0041,0.5979 -0.0021,0.89683 0.0074,0.20897 -0.01219,0.41959 0.01673,0.62684 0.07187,0.21821 0.12314,0.44143 0.152337,0.67021 0.02189,0.20568 0.02278,0.4129 0.02373,0.61959 1.86e-4,0.19978 -5.56e-4,0.39953 -9.26e-4,0.59931 -3.18e-4,0.19959 -3.71e-4,0.39918 -4.24e-4,0.59878 -2.4e-5,0.19967 -1.6e-5,0.39937 -1.2e-5,0.59906 2e-6,0.13312 3e-6,0.26626 4e-6,0.39939 0,0 -1.127108,-0.86529 -1.127108,-0.86529 v 0 c -10e-7,-0.13313 -3e-6,-0.26626 -5e-6,-0.39939 -2e-6,-0.1997 -10e-6,-0.39941 3.3e-5,-0.5991 6e-5,-0.19967 1.56e-4,-0.39933 5.56e-4,-0.599 3.97e-4,-0.19933 0.0013,-0.39868 1.31e-4,-0.59802 -0.0023,-0.2008 -0.0054,-0.40231 -0.03384,-0.60129 -0.03717,-0.22845 -0.105509,-0.44782 -0.147925,-0.67487 -0.01478,-0.21266 -0.0063,-0.42596 -0.0067,-0.63907 0.0031,-0.2963 0.0096,-0.59253 0.0204,-0.88864 0.0131,-0.37167 0.03467,-0.74293 0.06578,-1.11343 0,0 1.118705,0.88903 1.118705,0.88903 z"
       inkscape:connector-curvature="0" />
    <path
       style="fill:#00be00;fill-opacity:1;stroke:#00be00;stroke-width:0.52460498;stroke-miterlimit:4;stroke-dasharray:none;stroke-opacity:1"
       id="path3229-0"
       d="m 19.166726,263.33397 c -0.01075,0.41775 -0.01362,0.83469 -0.03751,1.25183 -0.02179,0.33352 -0.04093,0.66723 -0.0511,1.00154 -0.0059,0.22108 -0.0061,0.44229 -0.0062,0.66346 7.5e-5,0.21329 3.18e-4,0.42657 4.24e-4,0.63985 1.08e-4,0.21454 1.19e-4,0.42907 1.3e-4,0.64359 6e-6,0.21474 2e-6,0.42946 1e-6,0.64419 -1e-6,0.10737 -1e-6,0.21473 -1e-6,0.32209 0,0 -1.092074,0.93039 -1.092074,0.93039 v 0 c 0,-0.10737 1e-6,-0.21472 2e-6,-0.32209 10e-7,-0.21472 5e-6,-0.42945 0,-0.64418 -8e-6,-0.21448 -1.9e-5,-0.42896 -1.4e-4,-0.64345 -1.41e-4,-0.21332 -4.24e-4,-0.42664 -5.82e-4,-0.63995 3e-5,-0.22395 -1.16e-4,-0.44796 0.007,-0.6718 0.0129,-0.34165 0.03947,-0.68209 0.06803,-1.02239 0.02832,-0.40568 0.03691,-0.81146 0.01464,-1.21812 0,0 1.097435,-0.93496 1.097435,-0.93496 z"
       inkscape:connector-curvature="0" />
    <path
       style="fill:#00be00;fill-opacity:1;stroke:#00be00;stroke-width:0.45663786;stroke-miterlimit:4;stroke-dasharray:none;stroke-opacity:1"
       id="path3233-3"
       d="m 18.466917,277.6104 c -0.0323,0.68479 0.02283,1.36852 0.08275,2.0479 0.05483,0.55355 0.100289,1.11214 0.205291,1.65426 0.04138,0.25574 0.128709,0.49115 0.189249,0.7386 0.02849,0.12363 0.03824,0.25186 0.04614,0.37987 0,0 -0.898363,0.86204 -0.898363,0.86204 v 0 c -0.0046,-0.11899 -0.0097,-0.23847 -0.03087,-0.35486 -0.0523,-0.25577 -0.139352,-0.49765 -0.175436,-0.75985 -0.105137,-0.55591 -0.127859,-1.13274 -0.182933,-1.69932 -0.05725,-0.67022 -0.111182,-1.34078 -0.138371,-2.01441 0,0 0.902545,-0.85423 0.902545,-0.85423 z"
       inkscape:connector-curvature="0" />
    <path
       style="fill:#00be00;fill-opacity:1;stroke:#00be00;stroke-width:0.5;stroke-miterlimit:4;stroke-dasharray:none;stroke-opacity:1"
       id="path3239-3"
       d="m 9.3514842,278.63359 c -0.01912,0.43361 -0.02193,0.86788 -0.02485,1.30185 -8.47e-4,0.48562 0.0071,0.97117 0.0098,1.45677 0.0027,0.28185 0.0072,0.56367 0.0096,0.84552 8.46e-4,0.1458 -2.92e-4,0.2916 -1.19e-4,0.43741 0,0 -1.123699,0.81641 -1.123699,0.81641 v 0 c 1.79e-4,-0.14575 -9.79e-4,-0.29149 -1.18e-4,-0.43724 0.0024,-0.28647 0.0068,-0.57292 0.0096,-0.85939 0.0027,-0.49033 0.01059,-0.98062 0.0098,-1.47097 -0.0029,-0.42193 -0.0053,-0.84421 -0.02485,-1.26574 0,0 1.134985,-0.82462 1.134985,-0.82462 z"
       inkscape:connector-curvature="0" />
    <path
       style="fill:#00be00;fill-opacity:1;stroke:#00be00;stroke-width:0.5;stroke-miterlimit:4;stroke-dasharray:none;stroke-opacity:1"
       id="path3241-7"
       d="m 13.678766,279.09991 c -0.06664,0.33071 -0.11648,0.66353 -0.149154,0.9993 -0.0226,0.26898 -0.02657,0.53904 -0.02813,0.80881 0.0011,0.22308 0.0012,0.44615 0.0012,0.66923 6.09e-4,0.21132 0.0016,0.42264 0.0021,0.63396 3.97e-4,0.19106 4.5e-4,0.38212 4.77e-4,0.57319 1.5e-5,0.18877 3e-6,0.37754 -3e-6,0.56631 -10e-7,0.0315 -10e-7,0.063 -2e-6,0.0944 0,0 -1.127118,-0.8189 -1.127118,-0.8189 v 0 c 0,-0.0315 -10e-7,-0.063 -10e-7,-0.0944 -4e-6,-0.18876 -1.1e-5,-0.37753 10e-6,-0.5663 3.5e-5,-0.19083 8.8e-5,-0.38166 3.97e-4,-0.57249 3.7e-4,-0.2105 0.0011,-0.42099 9.79e-4,-0.63149 -7.94e-4,-0.22313 -0.0024,-0.44626 0.0015,-0.66938 0.0043,-0.27114 0.01467,-0.54216 0.04608,-0.81177 0.03878,-0.34141 0.103422,-0.67943 0.132921,-1.02182 0,0 1.118705,0.84136 1.118705,0.84136 z"
       inkscape:connector-curvature="0" />
    <path
       style="fill:#00be00;fill-opacity:1;stroke:#00be00;stroke-width:0.40590662;stroke-miterlimit:4;stroke-dasharray:none;stroke-opacity:1"
       id="path3243-4"
       d="m 23.523163,276.99951 c -0.01074,0.42201 -0.01691,0.8452 -0.0021,1.26698 0.03024,0.40842 0.0775,0.81509 0.144764,1.21042 0.06749,0.28352 0.108428,0.5795 0.132808,0.88204 0.01248,0.34115 0.01088,0.68338 0.013,1.02509 -4.5e-4,0.28082 0.0021,0.56164 0.0011,0.84245 -1.96e-4,0.23459 5.55e-4,0.46916 9.26e-4,0.70373 0.01067,0.2119 -0.01003,0.41585 -0.03045,0.62342 -0.01345,0.18194 -0.02941,0.36705 -0.06824,0.53905 -0.218747,0.43211 -0.03586,0.10156 -0.715858,-0.93632 -9.26e-4,-9e-4 -0.0021,-0.13187 -0.0024,-0.16214 0,0 0.703595,0.86652 0.703595,0.86652 v 0 c 0.0017,0.0263 0.0026,0.0527 0.0051,0.0787 0.0021,0.0221 0.01942,0.0781 0.0088,0.0655 -0.691195,-0.82906 -0.56816,-1.31288 -0.682827,-0.83909 0.04322,-0.15611 0.04391,-0.33598 0.06245,-0.50299 0.01949,-0.20024 0.02823,-0.3994 0.02258,-0.60276 4.5e-4,-0.23363 0.0013,-0.46724 0.0016,-0.70087 -2.91e-4,-0.27882 0.0036,-0.55759 0.0029,-0.83641 7.93e-4,-0.33785 0.0022,-0.67731 -0.02419,-1.01278 -0.02742,-0.29573 -0.07746,-0.5797 -0.133575,-0.86287 -0.05623,-0.40318 -0.106229,-0.81055 -0.125487,-1.22451 -0.0098,-0.43271 -0.0024,-0.86601 -0.01611,-1.29859 0,0 0.701573,0.87557 0.701573,0.87557 z"
       inkscape:connector-curvature="0" />
  </g>
</svg>
