<?xml version="1.0" encoding="UTF-8" standalone="no"?>
<!-- Created with Inkscape (http://www.inkscape.org/) -->

<svg
   xmlns:osb="http://www.openswatchbook.org/uri/2009/osb"
   xmlns:dc="http://purl.org/dc/elements/1.1/"
   xmlns:cc="http://creativecommons.org/ns#"
   xmlns:rdf="http://www.w3.org/1999/02/22-rdf-syntax-ns#"
   xmlns:svg="http://www.w3.org/2000/svg"
   xmlns="http://www.w3.org/2000/svg"
   xmlns:sodipodi="http://sodipodi.sourceforge.net/DTD/sodipodi-0.dtd"
   xmlns:inkscape="http://www.inkscape.org/namespaces/inkscape"
   width="125"
   height="175"
   viewBox="0 0 33.072916 46.302085"
   version="1.1"
   id="svg8"
   inkscape:version="0.92.5 (2060ec1f9f, 2020-04-08)"
   sodipodi:docname="purple-1-oval-striped.svg">
  <defs
     id="defs2">
    <linearGradient
       id="linearGradient841"
       osb:paint="solid">
      <stop
         style="stop-color:#a100ff;stop-opacity:1;"
         offset="0"
         id="stop839" />
    </linearGradient>
  </defs>
  <sodipodi:namedview
     id="base"
     pagecolor="#ffffff"
     bordercolor="#666666"
     borderopacity="1.0"
     inkscape:pageopacity="0.0"
     inkscape:pageshadow="2"
     inkscape:zoom="1.979899"
     inkscape:cx="-64.539126"
     inkscape:cy="61.817489"
     inkscape:document-units="mm"
     inkscape:current-layer="layer1"
     showgrid="false"
     units="px"
     inkscape:snap-midpoints="true"
     inkscape:window-width="1366"
     inkscape:window-height="705"
     inkscape:window-x="-8"
     inkscape:window-y="-8"
     inkscape:window-maximized="1" />
  <metadata
     id="metadata5">
    <rdf:RDF>
      <cc:Work
         rdf:about="">
        <dc:format>image/svg+xml</dc:format>
        <dc:type
           rdf:resource="http://purl.org/dc/dcmitype/StillImage" />
        <dc:title />
      </cc:Work>
    </rdf:RDF>
  </metadata>
  <g
     inkscape:label="Layer 1"
     inkscape:groupmode="layer"
     id="layer1"
     transform="translate(0,-250.6979)">
    <ellipse
       style="fill:none;stroke:#c800ff;stroke-width:0.5;stroke-opacity:1;fill-opacity:1;stroke-miterlimit:4;stroke-dasharray:none"
       id="path10-4"
       cx="16.83798"
       cy="274.28207"
       rx="8.2856903"
       ry="4.1430125" />
    <path
       style="fill:#c800ff;fill-opacity:1;stroke:#c800ff;stroke-width:0.5;stroke-opacity:1;stroke-miterlimit:4;stroke-dasharray:none"
       id="path823"
       d="m 11.964291,271.50813 c -0.02027,0.33126 0.04177,0.66031 0.0915,0.98641 0.05167,0.26871 0.0596,0.5429 0.09496,0.81341 0.04389,0.21212 0.06527,0.42738 0.07964,0.64322 0.03225,0.19652 0.0576,0.39485 0.0953,0.59043 0.05387,0.19824 0.07928,0.4005 0.09289,0.60488 0.0118,0.21017 0.01327,0.42073 0.01421,0.63118 4.23e-4,0.19119 5.2e-5,0.38239 -1.25e-4,0.57358 -8.8e-5,0.0944 -1.31e-4,0.18877 -1.73e-4,0.28316 0,0 -1.241384,0.63246 -1.241384,0.63246 v 0 c 3.3e-5,-0.0944 6.3e-5,-0.18884 1.65e-4,-0.28326 2.31e-4,-0.19128 6.61e-4,-0.38255 0.0013,-0.57382 4.24e-4,-0.20828 0.0015,-0.41669 -0.0077,-0.62482 -0.01185,-0.19751 -0.03367,-0.39411 -0.08618,-0.58556 -0.04594,-0.20082 -0.05901,-0.40843 -0.102775,-0.61011 -0.0107,-0.21262 -0.0303,-0.42442 -0.07408,-0.63315 -0.04147,-0.27195 -0.02697,-0.55077 -0.0765,-0.8225 -0.04618,-0.32913 -0.110478,-0.65656 -0.131037,-0.9886 0,0 1.25001,-0.63691 1.25001,-0.63691 z"
       inkscape:connector-curvature="0" />
    <path
       style="fill:#c800ff;fill-opacity:1;stroke:#c800ff;stroke-width:0.5;stroke-opacity:1;stroke-miterlimit:4;stroke-dasharray:none"
       id="path825"
       d="m 15.453031,270.96352 c -0.142904,0.77485 -0.170496,1.56498 -0.198974,2.35052 -0.0234,0.75496 -0.0155,1.5102 -0.0047,2.26525 0.0054,0.29028 0.01244,0.58052 0.01594,0.87083 0.002,0.18894 0.002,0.37788 0.0021,0.56683 -0.0017,0.21045 -0.002,0.4209 -0.0014,0.63137 0,0 -1.238757,0.63117 -1.238757,0.63117 v 0 c 5.55e-4,-0.20994 2.91e-4,-0.41987 -0.0015,-0.62981 -7.4e-5,-0.18936 -2.64e-4,-0.37873 9.27e-4,-0.5681 0.0024,-0.29616 0.0083,-0.59226 0.01623,-0.88833 0.01886,-0.76755 0.04706,-1.53486 0.06955,-2.30231 0.0237,-0.77101 0.04557,-1.54216 0.0831,-2.31261 0,0 1.257538,-0.61481 1.257538,-0.61481 z"
       inkscape:connector-curvature="0" />
    <path
       style="fill:#c800ff;fill-opacity:1;stroke:#c800ff;stroke-width:0.5;stroke-opacity:1;stroke-miterlimit:4;stroke-dasharray:none"
       id="path827"
       d="m 19.332244,270.68161 c 2.3e-4,0.56588 0.07556,1.12845 0.151635,1.68815 0.07035,0.5551 0.154343,1.1067 0.274575,1.65314 0.0503,0.28024 0.101267,0.55864 0.168587,0.83521 0.04692,0.2037 0.05462,0.41381 0.06154,0.62196 0.0035,0.21864 0.0024,0.43736 0.0028,0.65603 -0.0012,0.22058 -0.0015,0.44115 -7.67e-4,0.66174 7.14e-4,0.19746 0.0011,0.39493 0.0012,0.59241 7.5e-5,0.0947 9.4e-5,0.18932 1.15e-4,0.28398 0,0 -1.24134,0.6325 -1.24134,0.6325 v 0 c 1.8e-5,-0.0947 3.4e-5,-0.1894 1.09e-4,-0.2841 1.86e-4,-0.19795 5.29e-4,-0.39589 0.0014,-0.59383 9e-4,-0.22062 9.79e-4,-0.44124 6.62e-4,-0.66185 0.0011,-0.21735 0.002,-0.43469 -0.002,-0.65202 -0.004,-0.19981 -0.0089,-0.40091 -0.04934,-0.59737 -0.05991,-0.28219 -0.101918,-0.56556 -0.145894,-0.85069 -0.106647,-0.55624 -0.173125,-1.11783 -0.243035,-1.67971 -0.0794,-0.55652 -0.154519,-1.11366 -0.225131,-1.67127 0,0 1.244846,-0.63428 1.244846,-0.63428 z"
       inkscape:connector-curvature="0" />
    <path
       style="fill:#c800ff;fill-opacity:1;stroke:#c800ff;stroke-width:0.5;stroke-opacity:1;stroke-miterlimit:4;stroke-dasharray:none"
       id="path829"
       d="m 23.396779,272.27605 c -0.01175,0.27807 -0.0104,0.55655 -0.0087,0.83481 -7.67e-4,0.25448 0.0022,0.50894 0.0039,0.76341 -0.0017,0.22213 -1.59e-4,0.44426 6.62e-4,0.66639 0.0027,0.21796 -0.0018,0.43588 -0.0026,0.65382 2.56e-4,0.22502 0.0019,0.45003 0.0028,0.67504 6.88e-4,0.19226 7.94e-4,0.38451 8.47e-4,0.57677 2.1e-5,0.12574 1.4e-5,0.0629 2.1e-5,0.18859 0,0 -1.241383,0.63251 -1.241383,0.63251 v 0 c 7e-6,-0.12572 0,-0.0628 2.1e-5,-0.18861 6.6e-5,-0.19254 1.65e-4,-0.38509 8.47e-4,-0.57763 8.73e-4,-0.22596 0.0025,-0.45192 0.0028,-0.67788 -8.2e-4,-0.21706 -0.0053,-0.4341 -0.0026,-0.65117 8.2e-4,-0.22235 0.0024,-0.44471 6.62e-4,-0.66706 0.0017,-0.2558 0.0047,-0.51161 0.0039,-0.76743 0.0017,-0.27531 0.0033,-0.55085 -0.0087,-0.82597 0,0 1.247428,-0.63559 1.247428,-0.63559 z"
       inkscape:connector-curvature="0" />
  </g>
</svg>
