<svg id="Layer_1" data-name="Layer 1" xmlns="http://www.w3.org/2000/svg" xmlns:xlink="http://www.w3.org/1999/xlink" viewBox="0 0 50 70"><defs><style>.cls-1{fill:none;}.cls-2{fill:#fff;}.cls-3{fill:#7f3f98;}.cls-4{stroke:#7f3f98;stroke-miterlimit:10;stroke-width:0.49px;fill:url(#New_Pattern_Swatch_3);}</style><pattern id="New_Pattern_Swatch_3" data-name="New Pattern Swatch 3" width="28" height="41.05" patternUnits="userSpaceOnUse" viewBox="0 0 28 41.05"><rect class="cls-1" width="28" height="41.05"/><rect class="cls-2" x="27.41" width="0.95" height="41.05"/><rect class="cls-2" x="25.41" width="0.95" height="41.05"/><rect class="cls-3" x="26.36" width="0.24" height="41.05"/><rect class="cls-2" x="23.41" width="0.95" height="41.05"/><rect class="cls-3" x="24.36" width="0.24" height="41.05"/><rect class="cls-2" x="21.41" width="0.95" height="41.05"/><rect class="cls-3" x="22.36" width="0.24" height="41.05"/><rect class="cls-2" x="19.41" width="0.95" height="41.05"/><rect class="cls-3" x="20.36" width="0.24" height="41.05"/><rect class="cls-2" x="17.41" width="0.95" height="41.05"/><rect class="cls-3" x="18.36" width="0.24" height="41.05"/><rect class="cls-2" x="15.41" width="0.95" height="41.05"/><rect class="cls-3" x="16.36" width="0.24" height="41.05"/><rect class="cls-2" x="13.41" width="0.95" height="41.05"/><rect class="cls-3" x="14.36" width="0.24" height="41.05"/><rect class="cls-2" x="11.41" width="0.95" height="41.05"/><rect class="cls-3" x="12.36" width="0.24" height="41.05"/><rect class="cls-2" x="9.41" width="0.95" height="41.05"/><rect class="cls-3" x="10.36" width="0.24" height="41.05"/><rect class="cls-2" x="7.41" width="0.95" height="41.05"/><rect class="cls-3" x="8.36" width="0.24" height="41.05"/><rect class="cls-2" x="5.41" width="0.95" height="41.05"/><rect class="cls-3" x="6.36" width="0.24" height="41.05"/><rect class="cls-2" x="3.41" width="0.95" height="41.05"/><rect class="cls-3" x="4.36" width="0.24" height="41.05"/><rect class="cls-2" x="1.41" width="0.95" height="41.05"/><rect class="cls-3" x="2.36" width="0.24" height="41.05"/><rect class="cls-2" x="-0.59" width="0.95" height="41.05"/><rect class="cls-3" x="0.36" width="0.24" height="41.05"/></pattern></defs><polygon class="cls-4" points="40.12 43.99 25 51.52 9.88 43.99 25 36.48 40.12 43.99"/><polygon class="cls-4" points="40.12 26 25 33.52 9.88 26 25 18.48 40.12 26"/></svg>