<svg id="Layer_1" data-name="Layer 1" xmlns="http://www.w3.org/2000/svg" viewBox="0 0 27.8 50.01"><defs><style>.cls-1{fill:none;stroke:#ed1c24;stroke-miterlimit:10;stroke-width:0.49px;}</style></defs><path class="cls-1" d="M27.08,39.22c-4.15-1-4.53-2.92-10.45.43-3.33,1.89-4.86-1.11-4.86-4.12h0c0-4.13,5.1-8.27,9.12-6.79,5.59,2.06,8.33,3.51,14.41-.44,2.67-1.72,4,1.95,3.27,4.79-.1.42-.16.63-.25,1C37.35,38.77,30.26,40,27.08,39.22Z" transform="translate(-11.2 -9.05)"/><path class="cls-1" d="M27.08,20.65c-4.15-1-4.53-2.92-10.45.44C13.3,23,11.77,20,11.77,17h0c0-4.13,5.1-8.27,9.12-6.79,5.59,2.06,8.33,3.51,14.41-.43,2.67-1.73,4,1.94,3.27,4.78-.1.42-.16.63-.25,1C37.35,20.2,30.26,21.41,27.08,20.65Z" transform="translate(-11.2 -9.05)"/><path class="cls-1" d="M26.75,57.78c-4.14-1-4.53-2.92-10.45.44-3.33,1.89-4.85-1.11-4.86-4.13h0c0-4.12,5.11-8.27,9.13-6.78,5.58,2.06,8.32,3.51,14.41-.44,2.66-1.73,4,2,3.26,4.79-.1.42-.16.63-.24,1C37,57.34,29.94,58.55,26.75,57.78Z" transform="translate(-11.2 -9.05)"/></svg>