<?xml version="1.0" encoding="UTF-8" standalone="no"?>
<!-- Created with Inkscape (http://www.inkscape.org/) -->

<svg
   xmlns:osb="http://www.openswatchbook.org/uri/2009/osb"
   xmlns:dc="http://purl.org/dc/elements/1.1/"
   xmlns:cc="http://creativecommons.org/ns#"
   xmlns:rdf="http://www.w3.org/1999/02/22-rdf-syntax-ns#"
   xmlns:svg="http://www.w3.org/2000/svg"
   xmlns="http://www.w3.org/2000/svg"
   xmlns:sodipodi="http://sodipodi.sourceforge.net/DTD/sodipodi-0.dtd"
   xmlns:inkscape="http://www.inkscape.org/namespaces/inkscape"
   width="125"
   height="175"
   viewBox="0 0 33.072916 46.302085"
   version="1.1"
   id="svg8"
   inkscape:version="0.92.5 (2060ec1f9f, 2020-04-08)"
   sodipodi:docname="red-2-diamond-striped.svg">
  <defs
     id="defs2">
    <linearGradient
       id="linearGradient841"
       osb:paint="solid">
      <stop
         style="stop-color:#a100ff;stop-opacity:1;"
         offset="0"
         id="stop839" />
    </linearGradient>
  </defs>
  <sodipodi:namedview
     id="base"
     pagecolor="#ffffff"
     bordercolor="#666666"
     borderopacity="1.0"
     inkscape:pageopacity="0.0"
     inkscape:pageshadow="2"
     inkscape:zoom="2.8"
     inkscape:cx="-11.279517"
     inkscape:cy="91.996365"
     inkscape:document-units="mm"
     inkscape:current-layer="layer1"
     showgrid="false"
     units="px"
     inkscape:snap-midpoints="true"
     inkscape:window-width="1366"
     inkscape:window-height="705"
     inkscape:window-x="-8"
     inkscape:window-y="-8"
     inkscape:window-maximized="1" />
  <metadata
     id="metadata5">
    <rdf:RDF>
      <cc:Work
         rdf:about="">
        <dc:format>image/svg+xml</dc:format>
        <dc:type
           rdf:resource="http://purl.org/dc/dcmitype/StillImage" />
        <dc:title></dc:title>
      </cc:Work>
    </rdf:RDF>
  </metadata>
  <g
     inkscape:label="Layer 1"
     inkscape:groupmode="layer"
     id="layer1"
     transform="translate(0,-250.6979)">
    <path
       style="fill:none;fill-opacity:1;stroke:#ff0000;stroke-width:0.5;stroke-linecap:butt;stroke-linejoin:miter;stroke-miterlimit:4;stroke-dasharray:none;stroke-opacity:1"
       d="m 25.966827,267.30115 -9.473688,-5.19408 -9.654489,5.23747 9.638585,5.19421 z"
       id="path3123-3-2"
       inkscape:connector-curvature="0" />
    <path
       style="fill:none;fill-opacity:1;stroke:#ff0000;stroke-width:0.5;stroke-linecap:butt;stroke-linejoin:miter;stroke-miterlimit:4;stroke-dasharray:none;stroke-opacity:1"
       d="m 25.966827,281.05957 -9.473688,-5.19408 -9.654489,5.23747 9.638584,5.19421 z"
       id="path3123-3-7-9"
       inkscape:connector-curvature="0" />
    <path
       style="fill:#ff0000;fill-opacity:1;stroke:#ff0000;stroke-width:0.5;stroke-miterlimit:4;stroke-dasharray:none;stroke-opacity:1"
       id="path882-8"
       d="m 11.120233,265.59874 c -0.01031,0.24047 -0.0068,0.48131 -0.0055,0.72194 -0.0017,0.23012 2.53e-4,0.46023 0.0013,0.69035 8.47e-4,0.19481 0.0011,0.38963 0.0012,0.58445 -0.0016,0.21176 -0.0019,0.42352 -0.0013,0.63529 6.62e-4,0.19729 10e-4,0.39459 0.0012,0.59188 7.9e-5,0.12659 4.7e-5,0.0633 9.5e-5,0.18972 0,0 -1.24128,0.63247 -1.24128,0.63247 v 0 c 4.9e-5,-0.12644 1.7e-5,-0.0632 9.5e-5,-0.18982 1.84e-4,-0.1977 5.3e-4,-0.39539 0.0012,-0.59309 5.83e-4,-0.21134 3.44e-4,-0.42267 -0.0013,-0.634 1.24e-4,-0.19522 3.44e-4,-0.39044 0.0012,-0.58566 10e-4,-0.23054 0.003,-0.46109 0.0013,-0.69164 0.0013,-0.23874 0.0049,-0.47771 -0.0055,-0.7163 0,0 1.247428,-0.63559 1.247428,-0.63559 z"
       inkscape:connector-curvature="0" />
    <path
       style="fill:#ff0000;fill-opacity:1;stroke:#ff0000;stroke-width:0.5;stroke-miterlimit:4;stroke-dasharray:none;stroke-opacity:1"
       id="path884-6"
       d="m 14.616513,263.80335 c -0.01552,0.33645 -0.01371,0.67348 -0.01438,1.01022 0.0014,0.42962 -0.0045,0.8592 -0.0049,1.28881 -7.41e-4,0.43107 0.0033,0.8621 0.0047,1.29316 0.0014,0.32282 0.0038,0.64563 0.0069,0.96844 -0.01446,0.25671 0.0167,0.50744 0.07725,0.75615 0.05845,0.21014 0.08999,0.42532 0.106595,0.64234 0.01152,0.19083 0.011,0.3821 0.01105,0.57319 -1.79e-4,0.12577 -6.8e-5,0.0629 -3.44e-4,0.18864 0,0 -1.241519,0.63224 -1.241519,0.63224 v 0 c 2.91e-4,-0.12565 1.45e-4,-0.0628 4.24e-4,-0.18844 2.91e-4,-0.18848 0.0014,-0.37705 -0.006,-0.56543 -0.01137,-0.21049 -0.03477,-0.42008 -0.089,-0.62443 -0.06291,-0.25903 -0.109695,-0.51829 -0.0904,-0.78654 0.0031,-0.32515 0.0055,-0.65031 0.0069,-0.97547 0.0014,-0.43264 0.0054,-0.86527 0.0047,-1.29792 -3.97e-4,-0.42794 -0.0064,-0.85585 -0.0049,-1.2838 -6.62e-4,-0.33185 0.0014,-0.66402 -0.01438,-0.99557 0,0 1.247428,-0.63559 1.247428,-0.63559 z"
       inkscape:connector-curvature="0" />
    <path
       style="fill:#ff0000;fill-opacity:1;stroke:#ff0000;stroke-width:0.5;stroke-miterlimit:4;stroke-dasharray:none;stroke-opacity:1"
       id="path886-3"
       d="m 19.813686,263.99234 c -0.01944,0.41338 -0.01865,0.82753 -0.02319,1.24129 -0.005,0.60362 -0.0061,1.20725 -0.0024,1.81087 0.0032,0.41002 0.0097,0.82001 0.01653,1.22999 0.0038,0.21638 0.0052,0.4328 0.0059,0.64921 3.71e-4,0.18737 2.65e-4,0.37473 2.25e-4,0.5621 -4.7e-5,0.18846 -6.7e-5,0.37692 -7.8e-5,0.56537 -8e-6,0.18898 -8e-6,0.37796 -8e-6,0.56694 0,0 -1.241333,0.63249 -1.241333,0.63249 v 0 c 0,-0.18897 0,-0.37795 -9e-6,-0.56693 -10e-6,-0.18843 -2.9e-5,-0.37686 -7.7e-5,-0.56529 -3.9e-5,-0.18744 -1.45e-4,-0.37489 2.25e-4,-0.56233 6.35e-4,-0.21841 0.0021,-0.43681 0.0059,-0.65519 0.0068,-0.41559 0.0133,-0.83119 0.01653,-1.24683 0.0037,-0.60281 0.0026,-1.20563 -0.0024,-1.80843 -0.0045,-0.40588 -0.0035,-0.81218 -0.02319,-1.21767 0,0 1.247428,-0.63559 1.247428,-0.63559 z"
       inkscape:connector-curvature="0" />
    <path
       style="fill:#ff0000;fill-opacity:1;stroke:#ff0000;stroke-width:0.5;stroke-miterlimit:4;stroke-dasharray:none;stroke-opacity:1"
       id="path888-1"
       d="m 23.59474,266.05924 c -0.0098,0.22039 -0.0057,0.4411 -0.0074,0.66163 7.41e-4,0.2403 0.01258,0.47866 -0.03132,0.71574 -0.06777,0.23048 -0.116548,0.4632 -0.139434,0.70226 -0.01241,0.15633 -0.01482,0.31316 -0.01674,0.46989 0,0 -1.238669,0.62881 -1.238669,0.62881 v 0 c 0.0028,-0.16038 0.0065,-0.32078 0.01719,-0.48086 0.01791,-0.24443 0.0454,-0.48603 0.128638,-0.71853 0.06232,-0.22533 0.04436,-0.45589 0.04509,-0.68792 -0.0017,-0.21802 0.0025,-0.43623 -0.0074,-0.6541 0,0 1.25001,-0.63692 1.25001,-0.63692 z"
       inkscape:connector-curvature="0" />
    <path
       style="fill:#ff0000;fill-opacity:1;stroke:#ff0000;stroke-width:0.5;stroke-miterlimit:4;stroke-dasharray:none;stroke-opacity:1"
       id="path890-7"
       d="m 10.649054,279.38291 c -0.02534,0.275 0.002,0.54815 0.02777,0.82173 0.02774,0.2625 0.04669,0.52572 0.05671,0.78946 0.0062,0.19594 0.0062,0.39199 0.0063,0.588 -1.27e-4,0.18826 -3.7e-4,0.37651 -5.02e-4,0.56477 -1.6e-5,0.0314 -3.2e-5,0.0629 -4.8e-5,0.0943 0,0 -1.241397,0.63246 -1.241397,0.63246 v 0 c 8e-6,-0.0314 1.6e-5,-0.0629 2.3e-5,-0.0943 7.3e-5,-0.18826 1.95e-4,-0.37653 5.3e-4,-0.5648 3.17e-4,-0.19542 0.0011,-0.39085 -0.0011,-0.58626 -0.0044,-0.26262 -0.01429,-0.52524 -0.04045,-0.78672 -0.02858,-0.27366 -0.0585,-0.54614 -0.05781,-0.82172 0,0 1.25001,-0.63691 1.25001,-0.63691 z"
       inkscape:connector-curvature="0" />
    <path
       style="fill:#ff0000;fill-opacity:1;stroke:#ff0000;stroke-width:0.5;stroke-miterlimit:4;stroke-dasharray:none;stroke-opacity:1"
       id="path892-6"
       d="m 14.333031,277.2215 c -0.0169,0.35969 -0.01486,0.71994 -0.01728,1.07992 -0.01697,0.4914 -0.0035,0.97919 0.063,1.46632 0.06306,0.3889 0.145739,0.77106 0.260426,1.14764 0.08335,0.25316 0.158437,0.50699 0.224055,0.76516 0.06963,0.22935 0.09693,0.46708 0.115047,0.7051 0.01207,0.23438 0.01405,0.46942 0.01033,0.70407 -0.0032,0.26893 -0.0016,0.53787 1.84e-4,0.80681 0.0015,0.20461 0.0022,0.40923 0.0025,0.61385 1.29e-4,0.12646 7.8e-5,0.0633 1.53e-4,0.18944 0,0 -1.24133,0.63249 -1.24133,0.63249 v 0 c 7.6e-5,-0.12623 2.3e-5,-0.063 1.59e-4,-0.18961 3.71e-4,-0.20559 0.0011,-0.41118 0.0029,-0.61677 0.0023,-0.2693 0.0048,-0.5386 0.0022,-0.80792 -0.0037,-0.23132 7.68e-4,-0.46278 -0.01019,-0.69398 -0.01242,-0.23052 -0.03502,-0.46067 -0.100484,-0.68316 -0.06788,-0.25631 -0.131709,-0.51311 -0.211685,-0.7662 -0.113107,-0.38632 -0.190755,-0.77817 -0.253818,-1.17594 -0.0619,-0.49209 -0.09201,-0.98285 -0.0764,-1.47931 -0.0024,-0.35411 -1.42e-4,-0.70852 -0.01729,-1.06231 0,0 1.247428,-0.6356 1.247428,-0.6356 z"
       inkscape:connector-curvature="0" />
    <path
       style="fill:#ff0000;fill-opacity:1;stroke:#ff0000;stroke-width:0.5;stroke-miterlimit:4;stroke-dasharray:none;stroke-opacity:1"
       id="path894-9"
       d="m 19.792901,277.81814 c -0.183145,0.37387 -0.246426,0.78953 -0.347549,1.18972 -0.111386,0.37471 -0.166112,0.76024 -0.196679,1.14878 -0.02708,0.46632 -0.02494,0.93374 -0.02313,1.40066 -7.68e-4,0.37748 0.007,0.75489 0.01137,1.13233 0.0038,0.24766 0.0032,0.49535 0.0046,0.74304 0.0012,0.20144 0.0017,0.40289 0.002,0.60433 1.9e-4,0.18896 1.7e-4,0.37792 1.67e-4,0.56688 -2e-6,0.0314 -3e-6,0.0629 -4e-6,0.0943 0,0 -1.241376,0.63251 -1.241376,0.63251 v 0 c -1e-6,-0.0314 -2e-6,-0.0629 -3e-6,-0.0943 -2e-6,-0.18902 -2e-5,-0.37804 1.8e-4,-0.56705 2.91e-4,-0.20213 8.2e-4,-0.40425 0.002,-0.60638 0.0013,-0.24905 6.35e-4,-0.4981 0.0038,-0.74713 0.0033,-0.38069 0.0092,-0.76138 0.0075,-1.14209 0.0014,-0.46823 -0.0011,-0.93657 0.01155,-1.40467 0.01993,-0.39825 0.07369,-0.79303 0.190637,-1.17569 0.111845,-0.39708 0.17448,-0.80577 0.301183,-1.19899 0,0 1.273676,-0.57625 1.273676,-0.57625 z"
       inkscape:connector-curvature="0" />
    <path
       style="fill:#ff0000;fill-opacity:1;stroke:#ff0000;stroke-width:0.5;stroke-miterlimit:4;stroke-dasharray:none;stroke-opacity:1"
       id="path896-8"
       d="m 23.120978,279.39487 c -0.01318,0.29486 -0.01118,0.59028 -0.01,0.88539 0.0022,0.27959 9.78e-4,0.55919 0.0028,0.83879 0.0018,0.21617 0.0031,0.43234 0.0037,0.64852 4.49e-4,0.18968 4.49e-4,0.37937 4.49e-4,0.56906 -1e-6,0.12568 -1.1e-5,0.25135 -1.9e-5,0.37703 0,0 -1.241371,0.63251 -1.241371,0.63251 v 0 c -9e-6,-0.12567 -1.8e-5,-0.25134 -1.9e-5,-0.37701 10e-6,-0.18984 6e-6,-0.37969 4.49e-4,-0.56953 6.35e-4,-0.21744 0.0019,-0.43487 0.0037,-0.6523 0.0018,-0.28054 5.29e-4,-0.56108 0.0028,-0.84162 0.0012,-0.29172 0.0034,-0.58378 -0.01,-0.87525 0,0 1.247428,-0.63559 1.247428,-0.63559 z"
       inkscape:connector-curvature="0" />
  </g>
</svg>
