<?xml version="1.0" encoding="UTF-8" standalone="no"?>
<!-- Created with Inkscape (http://www.inkscape.org/) -->

<svg
   xmlns:osb="http://www.openswatchbook.org/uri/2009/osb"
   xmlns:dc="http://purl.org/dc/elements/1.1/"
   xmlns:cc="http://creativecommons.org/ns#"
   xmlns:rdf="http://www.w3.org/1999/02/22-rdf-syntax-ns#"
   xmlns:svg="http://www.w3.org/2000/svg"
   xmlns="http://www.w3.org/2000/svg"
   xmlns:sodipodi="http://sodipodi.sourceforge.net/DTD/sodipodi-0.dtd"
   xmlns:inkscape="http://www.inkscape.org/namespaces/inkscape"
   width="125"
   height="175"
   viewBox="0 0 33.072916 46.302085"
   version="1.1"
   id="svg8"
   inkscape:version="0.92.5 (2060ec1f9f, 2020-04-08)"
   sodipodi:docname="red-1-squiggly-striped.svg">
  <defs
     id="defs2">
    <linearGradient
       id="linearGradient841"
       osb:paint="solid">
      <stop
         style="stop-color:#a100ff;stop-opacity:1;"
         offset="0"
         id="stop839" />
    </linearGradient>
  </defs>
  <sodipodi:namedview
     id="base"
     pagecolor="#ffffff"
     bordercolor="#666666"
     borderopacity="1.0"
     inkscape:pageopacity="0.0"
     inkscape:pageshadow="2"
     inkscape:zoom="2.8"
     inkscape:cx="111.14406"
     inkscape:cy="91.996365"
     inkscape:document-units="mm"
     inkscape:current-layer="layer1"
     showgrid="false"
     units="px"
     inkscape:snap-midpoints="true"
     inkscape:window-width="1366"
     inkscape:window-height="705"
     inkscape:window-x="-8"
     inkscape:window-y="-8"
     inkscape:window-maximized="1" />
  <metadata
     id="metadata5">
    <rdf:RDF>
      <cc:Work
         rdf:about="">
        <dc:format>image/svg+xml</dc:format>
        <dc:type
           rdf:resource="http://purl.org/dc/dcmitype/StillImage" />
        <dc:title></dc:title>
      </cc:Work>
    </rdf:RDF>
  </metadata>
  <g
     inkscape:label="Layer 1"
     inkscape:groupmode="layer"
     id="layer1"
     transform="translate(0,-250.6979)">
    <path
       d="m 22.825484,269.6607 c -0.25583,-0.14016 -0.535234,-0.18983 -0.810467,-0.25802 -0.380646,-0.0943 -0.790654,-0.0746 -1.172781,-0.0196 -0.119564,0.0173 -0.237499,0.0478 -0.352675,0.0883 -0.237702,0.0835 -0.476257,0.15704 -0.700343,0.28111 -1.20331,0.66615 -1.99767,1.95146 -2.744405,3.17321 -0.269315,0.44066 -0.539957,0.8833 -0.845972,1.29172 -0.132617,0.15245 -0.273091,0.29575 -0.423962,0.42345 -0.05747,0.0341 -0.116097,0.0655 -0.17588,0.094 -0.08886,0.0232 -0.178739,0.0417 -0.269098,0.0551 -0.01915,-0.002 -0.03826,-0.003 -0.05736,-0.004 -0.0036,-0.003 -0.007,-0.006 -0.01051,-0.009 -0.141949,-0.18345 -0.264372,-0.38648 -0.380136,-0.59335 -0.175523,-0.32796 -0.34948,-0.65769 -0.54382,-0.97121 -0.245922,-0.39672 -0.547384,-0.73415 -0.872812,-1.04622 -0.114523,-0.10983 -0.238779,-0.2057 -0.36959,-0.28789 -0.244847,-0.15382 -0.492967,-0.31365 -0.761261,-0.40846 -0.25543,-0.0902 -0.52203,-0.1562 -0.788055,-0.18932 -0.261759,-0.0326 -0.534119,-0.006 -0.793561,0.0144 -0.137471,0.0108 -0.273831,0.037 -0.40792,0.073 -0.261216,0.0702 -0.5190753,0.16528 -0.7699063,0.27447 -0.3952669,0.17206 -0.7518649,0.4369 -1.105232,0.69923 -0.612634,0.45482 -1.126378,1.06698 -1.598179,1.70034 -0.152947,0.20532 -0.296179,0.4203 -0.42854,0.64372 -0.234831,0.39641 -0.333689,0.87278 -0.261578,1.34742 0.0713,0.46915 0.30443,0.89161 0.643453,1.1655 0.692048,0.5591 1.703442,0.37356 2.184908,-0.4392 0.143067,-0.24149 0.2992469,-0.47228 0.4658071,-0.69281 0.270129,-0.31586 0.5634472,-0.60616 0.8810952,-0.85675 0.168724,-0.10975 0.343531,-0.20667 0.524506,-0.28628 0.08979,-0.0244 0.180504,-0.0438 0.27196,-0.0577 0.05295,0.003 0.105794,0.008 0.158448,0.0145 0.04443,0.0164 0.08837,0.0344 0.131759,0.0541 0.05703,0.0427 0.112392,0.0882 0.166089,0.13626 0.188379,0.23412 0.348692,0.49569 0.499205,0.76409 0.172158,0.32263 0.342595,0.64737 0.535399,0.95396 0.07564,0.1203 0.156738,0.23609 0.244923,0.34456 0.17678,0.21739 0.367989,0.42671 0.5772,0.6028 0.209201,0.17609 0.449461,0.3117 0.687955,0.42484 0.05817,0.0276 0.118222,0.0496 0.17897,0.0684 0.194502,0.06 0.393239,0.11139 0.593164,0.14275 0.279031,0.0438 0.572259,0.0134 0.849241,-0.0154 0.178234,-0.0186 0.355517,-0.0604 0.527708,-0.11592 0.230666,-0.0743 0.471956,-0.1525 0.691925,-0.26939 0.222593,-0.11828 0.43224,-0.28355 0.635894,-0.43414 0.20377,-0.15067 0.388289,-0.33401 0.559757,-0.53016 0.47664,-0.54527 0.888685,-1.14329 1.276609,-1.77219 0.355757,-0.57671 0.698793,-1.16897 1.101492,-1.7046 0.142857,-0.16448 0.294456,-0.31884 0.45756,-0.45582 0.06392,-0.0385 0.129207,-0.0738 0.195834,-0.10557 0.04526,-0.0108 0.09078,-0.0199 0.136542,-0.0274 0.06394,0.004 0.127738,0.009 0.191254,0.0185 0.03217,0.0121 0.06398,0.0254 0.09554,0.0393 0.0427,0.0327 0.08428,0.0673 0.124909,0.10332 0.107445,0.1345 0.205208,0.27881 0.295581,0.4292 0.286765,0.5764 0.499982,1.19868 0.709693,1.81595 0.216784,0.63816 0.420246,1.29493 0.727433,1.88506 0.0719,0.13215 0.143792,0.26431 0.215684,0.39647 0.184531,0.25406 0.411987,0.43785 0.682357,0.5513 0.382802,0.15768 0.811708,0.13549 1.181319,-0.0587 0.381829,-0.20064 0.682469,-0.57829 0.824045,-1.03287 0.02864,-0.15239 0.05731,-0.30476 0.08598,-0.45712 0.02137,-0.31398 -0.02431,-0.6145 -0.136998,-0.90153 -0.328462,-0.63099 -0.540293,-1.337 -0.772978,-2.01881 -0.127065,-0.37236 -0.257845,-0.74331 -0.405449,-1.10565 -0.195997,-0.48113 -0.43276,-0.941 -0.694862,-1.37822 -0.249176,-0.41563 -0.57405,-0.78208 -0.920384,-1.08854 -0.222187,-0.19655 -0.487107,-0.34141 -0.736488,-0.47806 z"
       id="path4-1"
       inkscape:connector-curvature="0"
       style="fill:none;fill-opacity:1;stroke:#ff0000;stroke-width:0.5;stroke-miterlimit:4;stroke-dasharray:none;stroke-opacity:1" />
    <path
       style="fill:#ff0000;fill-opacity:1;stroke:#ff0000;stroke-width:0.45663786;stroke-miterlimit:4;stroke-dasharray:none;stroke-opacity:1"
       id="path3233"
       d="m 18.470872,271.14704 c -0.0323,0.68479 0.02283,1.36852 0.08275,2.0479 0.05483,0.55355 0.100289,1.11214 0.205291,1.65426 0.04138,0.25574 0.128709,0.49115 0.189249,0.7386 0.02849,0.12363 0.03824,0.25186 0.04614,0.37987 0,0 -0.898363,0.86204 -0.898363,0.86204 v 0 c -0.0046,-0.11899 -0.0097,-0.23847 -0.03087,-0.35486 -0.0523,-0.25577 -0.139352,-0.49765 -0.175436,-0.75985 -0.105137,-0.55591 -0.127859,-1.13274 -0.182933,-1.69932 -0.05725,-0.67022 -0.111182,-1.34078 -0.138371,-2.01441 0,0 0.902545,-0.85423 0.902545,-0.85423 z"
       inkscape:connector-curvature="0" />
    <path
       style="fill:#ff0000;fill-opacity:1;stroke:#ff0000;stroke-width:0.5;stroke-miterlimit:4;stroke-dasharray:none;stroke-opacity:1"
       id="path3239"
       d="m 9.3554393,272.17023 c -0.019122,0.43361 -0.021931,0.86788 -0.024847,1.30185 -8.467e-4,0.48562 0.00712,0.97117 0.00977,1.45677 0.00275,0.28185 0.00718,0.56367 0.00955,0.84552 8.467e-4,0.1458 -2.91e-4,0.2916 -1.188e-4,0.43741 0,0 -1.1236983,0.81641 -1.1236983,0.81641 v 0 c 1.791e-4,-0.14575 -9.79e-4,-0.29149 -1.186e-4,-0.43724 0.00238,-0.28647 0.00679,-0.57292 0.00955,-0.85939 0.00266,-0.49033 0.010591,-0.98062 0.00977,-1.47097 -0.00286,-0.42193 -0.00529,-0.84421 -0.024847,-1.26574 0,0 1.1349857,-0.82462 1.1349857,-0.82462 z"
       inkscape:connector-curvature="0" />
    <path
       style="fill:#ff0000;fill-opacity:1;stroke:#ff0000;stroke-width:0.5;stroke-miterlimit:4;stroke-dasharray:none;stroke-opacity:1"
       id="path3241"
       d="m 13.682722,272.63655 c -0.06664,0.33071 -0.11648,0.66353 -0.149154,0.9993 -0.0226,0.26898 -0.02657,0.53904 -0.02813,0.80881 0.0011,0.22308 0.0012,0.44615 0.0012,0.66923 6.08e-4,0.21132 0.0016,0.42264 0.0021,0.63396 3.96e-4,0.19106 4.49e-4,0.38212 4.76e-4,0.57319 1.5e-5,0.18877 3e-6,0.37754 -3e-6,0.56631 -1e-6,0.0315 -1e-6,0.063 -2e-6,0.0944 0,0 -1.127118,-0.8189 -1.127118,-0.8189 v 0 c 0,-0.0315 -1e-6,-0.063 -1e-6,-0.0944 -4e-6,-0.18876 -1.1e-5,-0.37753 10e-6,-0.5663 3.5e-5,-0.19083 8.8e-5,-0.38166 3.97e-4,-0.57249 3.71e-4,-0.2105 0.0011,-0.42099 9.79e-4,-0.63149 -7.94e-4,-0.22313 -0.0024,-0.44626 0.0015,-0.66938 0.0043,-0.27114 0.01467,-0.54216 0.04608,-0.81177 0.03878,-0.34141 0.103422,-0.67943 0.132921,-1.02182 0,0 1.118705,0.84136 1.118705,0.84136 z"
       inkscape:connector-curvature="0" />
    <path
       style="fill:#ff0000;fill-opacity:1;stroke:#ff0000;stroke-width:0.40590662;stroke-miterlimit:4;stroke-dasharray:none;stroke-opacity:1"
       id="path3243"
       d="m 23.527118,270.53615 c -0.01074,0.42201 -0.01691,0.8452 -0.0021,1.26698 0.03024,0.40842 0.0775,0.81509 0.144765,1.21042 0.06749,0.28352 0.108427,0.5795 0.132807,0.88204 0.01248,0.34115 0.01088,0.68338 0.013,1.02509 -4.43e-4,0.28082 0.0021,0.56164 0.0011,0.84245 -1.96e-4,0.23459 5.63e-4,0.46916 9.38e-4,0.70373 0.01067,0.2119 -0.01003,0.41585 -0.03045,0.62342 -0.01345,0.18194 -0.02941,0.36705 -0.06824,0.53905 -0.218747,0.43211 -0.03586,0.10156 -0.715858,-0.93632 -9.38e-4,-9.1e-4 -0.0021,-0.13187 -0.0024,-0.16214 0,0 0.703595,0.86652 0.703595,0.86652 v 0 c 0.0017,0.0263 0.0026,0.0527 0.0051,0.0787 0.0021,0.0221 0.01942,0.0781 0.0088,0.0655 -0.691195,-0.82906 -0.56816,-1.31288 -0.682827,-0.83909 0.04322,-0.15611 0.04391,-0.33598 0.06245,-0.50299 0.01949,-0.20024 0.02823,-0.3994 0.02258,-0.60276 4.57e-4,-0.23363 0.0013,-0.46724 0.0016,-0.70087 -2.78e-4,-0.27882 0.0036,-0.55759 0.0029,-0.83641 8.04e-4,-0.33785 0.0022,-0.67731 -0.02419,-1.01278 -0.02742,-0.29573 -0.07746,-0.5797 -0.133575,-0.86287 -0.05623,-0.40318 -0.106229,-0.81055 -0.125487,-1.22451 -0.0098,-0.43271 -0.0024,-0.86601 -0.01611,-1.29859 0,0 0.701573,0.87557 0.701573,0.87557 z"
       inkscape:connector-curvature="0" />
  </g>
</svg>
